<?xml version="1.0" encoding="UTF-8"?>
<svg id="Calque_1" data-name="Calque 1" xmlns="http://www.w3.org/2000/svg" viewBox="0 0 1410.32 451.58">
  <path d="M61.9,373.02c15.18,25.4,44.21,29.54,71.07,32.81v45.75c-32.58-.47-73.38-4.48-101.26-21.98C9.77,416.67-1.19,393.99.1,368.78c1.5-29.39,17.7-43.14,42.58-55.28-14.76-13.43-26.99-24.82-27.24-47.46-.35-31.03,20.53-48.66,46.63-61.41-23.12-13.79-38.71-32.13-40.44-60.49-2.9-66.55,54.1-93.56,111.38-93.98l-.05,42c-12.65,1.89-23.54,6.57-31.99,15.93-14.13,16.92-15.59,41.62-2.72,59.72,8.18,11.49,20.72,16.93,34.72,19.01v39.47c-14.03-1.26-26.62-3.66-40.26-7.14-7.56,2.48-14.68,7.79-18.15,15.02-5.94,12.35-2.3,25.67,9.05,33.26,14.95,10,31.78,8.51,49.37,8.62v62.25c-21.99-.49-40.94-.93-61.96-6.85-12.76,11.2-19.18,24.73-9.12,41.56Z"/>
  <path d="M154.66,226.43l-.13-39.71c25.09-4.69,41.86-17.2,44.28-43.63,1.56-17.08-4.92-32.87-19.44-42.39-7.34-4.72-15.28-7.29-24.81-8.7v-42.02c15.3.95,29.02,3.09,43.49,5.59,6.43-31.38,24.83-48.72,55.91-54.15C266.75.04,278.85-.1,292.64.05v50.26s-26.41.43-26.41.43c-15.9.59-29.64,9.12-35.78,23.62,12.02,10.21,22.85,21.08,28.74,35.8,11.29,28.2,3.87,60.2-17.06,81.95-10.8,11.22-23.48,18.78-37.89,24.51-15.74,5.9-31.04,8.93-49.58,9.81Z"/>
  <path d="M154.51,406.93c13.39-.46,25.51-1.23,38.06-3.48,8.97-2.35,17.25-5.05,24.9-10.05,11.19-7.79,16.48-21.18,12.07-34.25-2.27-6.73-7.73-11.23-13.77-14.79-8.09-3.85-16.66-5.64-25.79-6.12l-35.44-.03v-62.2s45.61.27,45.61.27c17.74.11,34.61,4.16,50.26,11.9,29.24,14.57,45.61,44.37,41.73,76.95-2.59,21.78-13.81,40.56-30.79,54.39-13.7,11.07-29.2,18.04-46.2,23.09-19.79,5.54-39.46,8.15-60.58,8.81l-.06-44.5Z"/>
  <circle cx="351.04" cy="182.1" r="35"/>
  <circle cx="351.04" cy="82.91" r="35"/>
  <path d="M846.62,404.19l13.97,17.24c-1.71,1.08-7.78,2.07-9.3.39l-9.63-10.63c-10.59,13.08-27.5,16.96-41.89,9.26-6.81-3.64-10.29-10.68-11.17-17.12-2.16-15.71,9.09-23.24,21.26-31-7.59-9.95-14.95-19.67-7.8-31.13,3.27-5.25,9.83-8.53,16.92-8.56s14.06,3.1,17.46,8.75c7.98,13.23-2.08,25.38-14.8,32.87l19.38,23.17c1.79-4.46,2.37-9,2.85-13.67.84-1.77,6.32-1.73,7.67.14-.11,6.8-2.11,14.03-4.93,20.28ZM817.29,368.74c5.88-3.52,10.64-7.16,12.88-13.08,1.55-4.09.95-8.94-1.85-12.34-4.73-5.75-15.94-4.69-19.3,1.34-4.85,8.7,2.18,16.72,8.26,24.09ZM811.27,417.02c10.54,2.23,19.64-3.64,25.48-12.29l-22.02-26.79c-11.49,5.57-22.33,15.86-16.84,28.67,1.97,4.61,6.9,9.03,13.38,10.41Z"/>
  <path d="M480.76,296.87l-8.02.06-.14-45.94c-.01-4.6-2.34-9.94-6.24-12.07-5.62-3.08-12.06-2.44-17.76,1.15-3.92,2.47-8.14,8.84-8.21,15.1l-.44,41.83-8.27-.11v-64.66s7.7-.23,7.7-.23l.15,10.25c5.59-9.35,14.92-13.44,25.08-11.91,6.56.99,11.61,4.39,14.9,11.31,5.27-8.81,14.09-12.42,24.16-11.49,9.41.87,17.55,7.63,17.61,18.01l.26,48.33c-2.29.41-4.86.49-8.02.4l-.28-47.01c-.04-7.2-5.54-12.22-12.18-12.71-5.96-.44-11.8.5-15.52,5.52-3,4.05-4.71,10-4.72,15.26l-.08,38.91Z"/>
  <path d="M438.62,428.77c4.21,14.37,22.53,15.22,31.68,9.43s8.49-20.17,8.49-30.26c-4.17,9.61-13.31,14.54-23.86,13.74s-19.96-6.8-23.66-17.28c-3.42-9.68-3.71-20.26-.28-29.98,4.13-11.69,14.54-18.97,27.03-18.79,9.17.14,17.23,5.3,20.63,13.47l.33-11.02c1.98-.88,6.09-.67,7.66.82l-.32,65c-.04,8.9-5,17.46-12.54,21.1-14.27,6.89-40.98,3.87-42.78-16.15l7.62-.08ZM476.18,401.9c4.02-10.05,3.23-21.16-2-30.21-3.93-6.8-10.9-9.87-18.47-9.13-6.51.64-12.6,4.52-15.7,11.28-4.18,9.11-4.53,19.62-.51,28.83,3.47,7.95,10.72,12.36,18.98,12.21,7.59-.14,14.45-4.86,17.7-12.99Z"/>
  <path d="M995.43,285.41c-4.46,7.98-13.24,13.12-22.31,13.47-10.37.4-19.89-3.95-25.04-13.19-6.6-11.87-6.83-26.43-1.74-38.97,4.45-10.98,14.92-17.07,26.58-16.64,9.46.35,18.02,4.76,21.75,13.92l.03-36.89h8.27s0,89.76,0,89.76l-7.45.23-.1-11.7ZM992.2,250.64c-2.75-7.25-8.88-12.05-15.24-13.15-7.63-1.32-15.21.38-19.78,6.84-8.28,11.7-8.32,28.67,0,40.34,4.79,6.72,12.68,8.31,20.62,6.68,16.48-3.4,19.97-26.07,14.41-40.7Z"/>
  <path d="M663.63,285.4c-4.84,9.74-15.72,14.44-26.71,13.35s-19.79-8.65-23.26-19.66c-3.17-10.04-3.02-20.68.5-30.58,4.26-12,15.1-19.12,27.8-18.42,9.26.51,16.93,4.73,21.04,13.07l.26-35.95,8.25-.03.03,89.24-7.41.84-.5-11.86ZM660.91,250.96c-2.76-7.63-9.05-12.48-15.79-13.55-7.92-1.25-15.57.9-20.04,7.81-7.35,11.35-7.34,27.25.02,38.6,4.63,7.14,12.6,9.18,20.68,7.64,17.27-3.3,20.38-25.96,15.13-40.5Z"/>
  <path d="M588.63,276.82c.68-1.89,6.5-1.5,8.02-.84-2.09,14.54-13.41,23.15-27.67,23.06-12.09-.08-22.51-5.76-26.81-17.51-4.07-11.11-4.1-23.5.44-34.46s14.53-17.2,26.39-17.05c20.57.26,29.2,18.45,28.14,36.82l-49.6.05c.15,5.21,1.3,10.35,3.81,14.89,4.15,7.52,11.7,10.95,19.96,10.13,8.05-.8,14.09-6.05,17.34-15.09ZM589.05,259.78c-.65-12.66-8.59-22.35-19.59-22.72-12.62-.42-20.43,10-21.9,22.61l41.5.11Z"/>
  <path d="M1069.83,276.43c2.37-.95,5.84-.99,8.25-.55-2.2,15.05-13.8,23.33-28.12,23.14-11.71-.16-21.9-5.73-26.23-17.07-4.13-10.82-4.26-23.11-.12-33.97,4.35-11.43,14.32-18.01,26.37-17.96,21.12.08,29.81,18.97,28.49,36.83l-49.62.04c.46,15.04,9.19,26.3,23.52,25.03,8.08-.72,15.08-6.08,17.45-15.49ZM1070.4,259.7c-.46-7.04-2.54-12.54-7.03-17.1-7.53-7.65-19.99-7.4-27.3.54-4.25,4.62-6.49,10.35-7.04,16.62l41.36-.06Z"/>
  <path d="M549.25,150.61c2.53-.47,5.74-.54,8.32-.39-2.12,14.58-13.2,23.36-27.58,23.32-11.93-.03-22.35-5.4-26.8-16.96-4.29-11.15-4.35-23.68.12-34.81s14.72-17.41,26.67-17.2c20.29.35,28.98,18.13,27.94,36.72l-49.55.1c.07,6.29,1.69,12.12,5.24,17.16,4.62,6.56,12.3,8.86,19.94,7.61s13.57-6.48,15.69-15.54ZM549.84,134.2c-.69-6.3-1.93-9.74-4.18-13.9-3.88-5.2-9.27-8.53-15.38-8.71-12.33-.37-20.37,9.63-21.95,22.61h41.52Z"/>
  <path d="M1401.46,276.58c2.17-1.26,5.86-1.27,8.29-.63-2.08,14.29-12.88,22.76-26.8,23.09-13.12.32-24.29-6.27-28.3-19.18-3.23-10.4-3.23-21.83.71-32.03,4.26-11.04,13.84-17.61,25.6-17.81,21.3-.37,30.35,18.04,29.26,36.82l-49.67.05c.38,14.58,8.88,26.42,23.75,24.99,8.05-.77,14.98-6.39,17.14-15.3ZM1402.23,259.67c-.97-7.37-2.38-10.55-5.01-14.94-3.97-4.57-9.14-7.57-14.77-7.71-12.45-.31-20.62,10.22-21.7,22.72l41.48-.08Z"/>
  <path d="M779.72,150.3l8.28-.25c-2.28,15.21-13.59,23.6-28.04,23.49-12.22-.09-22.7-6.12-26.84-18.04-3.66-10.54-3.74-22.25.18-32.79,4.3-11.58,14.43-18.22,26.7-18.15,20.44.13,29.34,18.14,28.35,36.71l-49.67.16c.33,6.55,1.69,11.6,4.72,16.32,4.48,6.98,12.32,9.67,20.17,8.46s14.04-6.56,16.14-15.91ZM780.31,134.2c-.85-6.46-2.14-9.92-4.44-14.15-4.08-5.18-9.38-8.4-15.6-8.48-12.01-.16-20.13,9.68-21.52,22.65l41.56-.03Z"/>
  <path d="M1207.38,278.39c1.54-24.42,38.43-15.53,43.19-22.51,3.47-5.09,1.86-12.91-3.12-16-5.84-3.63-13.27-3.54-19.47-1.61-5.98,1.87-9.16,6.5-9.56,13.37-2.3.25-5.41.28-8.14.17.03-9.57,5.51-17.27,14.59-20.04,7.53-2.29,15.61-2.39,23.24-.06,7.02,2.14,12.25,8.65,12.28,16.31l.18,37.07c0,1.21.44,3.21,1.17,3.83s2.84.84,4.77,1.07c1.23.15,1.36,2.63,1.39,4.78.05,3.79-10.87,2.65-12.84-.28-1.47-2.2-1.86-5.2-2.52-8.72-4.81,10.26-15.28,13.88-26.11,13.1-11.28-.81-19.84-8.04-19.06-20.47ZM1223.13,290.4c10.41,4.19,23.44-.66,27.72-11.06,2.11-5.14,1.6-11.48,1.46-16.57-10.08,4.37-36.32,1.41-36.63,16.12-.09,4.28,2.15,9.37,7.46,11.51Z"/>
  <path d="M900.2,405.45c-.22-25.64,37.69-17.6,42.66-23.42,4.63-5.43,2.36-14.68-3.91-17.55-5.79-2.65-12.66-2.62-18.42-.73-6.11,2.02-8.86,6.6-9.48,13.51h-7.98c.31-10.4,6.35-18,16.16-20.42,6.65-1.64,13.8-1.67,20.57.07,7.32,1.88,13.23,8.33,13.27,16.21l.19,37.99c.04,7.34,7.65,1.08,7.39,8.6-.16,4.41-9.63,3.06-12.36.6-1.59-1.44-2.28-4.84-2.83-9.05-4.85,9.7-15.13,13.98-26.32,12.99-10.51-.92-18.83-7.11-18.93-18.8ZM913.12,414.28c4.97,3.88,11.09,3.69,16.58,2.28,16.01-4.11,15.92-17.55,15.82-29.66-7.67,6.57-35.02,1.97-37,15.86-.63,4.44.91,8.64,4.6,11.52Z"/>
  <path d="M1330.83,401.33c2.63-.35,5.47-.42,8.16-.31-2.34,15.16-13.62,23.53-28.02,23.41-12.24-.1-22.58-6.19-26.72-18.08-3.73-10.73-3.75-22.58.42-33.22,4.54-11.58,15-17.98,27.36-17.52,19.93.75,28.37,18.53,27.2,36.6l-49.53.1c.19,14.47,8.71,26.52,23.55,25.12,8.37-.79,15.32-6.12,17.57-16.1ZM1331.42,385.32c-.8-13.29-9.03-23.04-20.93-22.85-12.17.19-19.29,10.6-20.93,22.9l41.85-.06Z"/>
  <path d="M820.46,298.97c-13.08.09-23.51-6.97-28.1-18.65-3.99-10.16-3.94-21.4-.03-31.58,4.66-12.14,15.71-19.02,28.67-18.7,11.59.29,21.55,6.29,26.33,16.97,4.77,10.65,4.91,22.77.58,33.6-4.54,11.37-14.7,18.27-27.45,18.35ZM838.82,280.55c5.31-10.11,5.19-21.93.22-31.73-3.92-7.74-11.31-12.02-19.56-11.78-7.62.22-14.62,4.65-18.29,12.12-4.73,9.62-4.72,21.13.02,30.73,3.68,7.47,10.64,11.85,18.29,12.08s15.23-3.63,19.32-11.42Z"/>
  <path d="M1136.5,424.35c-12.41.27-22.58-5.82-27.61-16.55s-5.18-23.18-.69-34.19c4.72-11.56,15.38-18.13,27.79-18.04,12.4.1,22.85,6.79,27.44,18.4,4.16,10.53,4.15,22.4-.35,32.81s-14.32,17.3-26.58,17.57ZM1154.75,405.49c4.85-9.86,4.73-21.08.22-30.6-3.65-7.69-10.69-12.23-18.54-12.44s-15.44,3.89-19.41,11.47c-5.26,10.02-5.24,22.17.03,32.2,3.97,7.56,11.34,11.58,19.35,11.37,7.59-.19,14.53-4.25,18.35-12.02Z"/>
  <path d="M671.49,424.35c-12.65.05-22.84-6.49-27.55-17.58-4.75-11.16-4.59-23.89.59-34.85s14.92-16.2,26.45-16.34c12.35-.15,23.1,6.46,27.82,17.97,4.42,10.78,4.39,22.97-.36,33.61s-14.67,17.14-26.95,17.19ZM689.73,406.49c5.67-10.39,5.5-22.54.27-32.59-3.82-7.35-10.85-11.39-18.53-11.45-7.75-.06-14.83,3.92-18.76,11.2-5.39,9.98-5.39,22-.29,32.13,3.69,7.33,10.57,11.46,18.18,11.75,7.63.28,15.05-3.55,19.13-11.04Z"/>
  <path d="M613.89,114.72c-6.07-4.52-13.91-3.96-20.31-.59-4.88,2.57-9.91,9.21-9.98,16.14l-.4,40.9c-2.86.37-5.51.35-8.04-.17v-63.97c2.4-.29,5.39-.43,7.89-.42l.42,10.27c4.5-9.5,14.73-13.26,25.55-12.14,10.27,1.06,18.55,7.96,18.63,19.04l.35,47.42c-2.81.23-5.29.22-8.26,0l-.15-44.16c-.01-4.13-2.18-9.69-5.71-12.32Z"/>
  <path d="M1081.63,420.48c-8.27,4.37-17.63,4.7-26.41,2.62-9.72-2.31-16.59-11.13-16.34-20.93,12.38-4.73,4.3,9.04,17.94,13.81,7.22,2.52,15.37,2.13,21.84-2.34,3.23-2.23,4.76-6.01,4.29-10.07-1.88-16.58-46.69-4.48-41.87-33.45,2.09-12.55,20.19-16.69,32.7-13.32,9.14,2.47,14.84,9.69,15.13,19.54-2.4.3-5.57.31-7.91-.04-.92-6.25-3.8-10.73-9.46-12.61s-11.83-1.69-17.23.9c-3.44,1.65-5.59,5.4-5.54,9.04.24,16.62,38.99,6.2,42.22,28.25,1.11,7.58-2.01,14.72-9.37,18.61Z"/>
  <path d="M1014.61,420.48c-9.19,4.76-19.95,5.06-29.37,1.6-8.26-3.04-13.52-11.33-13.38-19.98,1.58-1.12,6.9-.94,7.42.73,1.69,5.51,4.2,10.67,9.82,12.84,7.21,2.79,15.32,2.54,22-1.64,3.3-2.07,5.13-5.72,4.96-9.5-.82-18.19-46.89-4.96-41.97-34.42,2.11-12.59,20.12-16.62,32.7-13.32,9.08,2.39,14.98,9.81,15.06,19.48-2.12.43-5.65.44-7.82-.02-.96-6.17-3.83-10.71-9.5-12.57-5.57-1.82-11.85-1.74-17.2.88-3.46,1.69-5.57,5.38-5.52,9,.22,16.77,38.96,6.13,42.19,28.31,1.1,7.52-1.94,14.73-9.4,18.6Z"/>
  <path d="M1367.44,422.26c-8.16-2.85-13.91-10.84-13.69-19.43.05-2.05,6.93-2.07,7.42-.1,1.42,5.77,3.93,10.37,9.26,12.71,7.47,3.28,16.31,2.81,23.14-1.91,3.13-2.17,4.59-6.06,4.16-9.9-1.89-16.72-45.43-4.34-42-32.85,1.58-13.11,20.14-17.47,33.11-13.89,8.13,2.25,14.88,9.29,14.32,18.45-.12,2-6.85,2.01-7.38-.08-1.29-5-3.67-9.4-8.55-11.21-6.06-2.25-12.84-2.28-18.66.83-3.41,1.82-5.34,5.78-4.97,9.51,1.56,15.83,39.1,5.57,42.22,27.66,1.11,7.86-2.63,15.34-10.21,18.86-8.63,4.01-18.52,4.71-28.16,1.35Z"/>
  <path d="M1134.46,240.22c-6.12-4.49-13.73-4.08-20.28-.62-4.91,2.59-9.98,9.32-10.05,16.49l-.39,40.75-8.03.09v-64.72s7.88-.06,7.88-.06l.59,10.07c4.99-9.78,14.86-13.03,25.5-11.96,10.12,1.02,18.47,7.86,18.55,18.97l.33,47.29c-2.29.36-4.85.47-8.03.45l-.21-43.18c-.02-4.68-1.83-10.61-5.86-13.57Z"/>
  <path d="M442.54,157.95c5.09,7.24,13.85,9.95,21.66,7.78s12.86-8.93,13.77-17.64h8.1c-1.24,13.82-10.61,24.16-23.97,25.25s-25.49-5.53-30.54-18.22c-4.11-10.33-4.12-21.83,0-32.18,5.18-13,17.7-19.67,31.42-18.19,11.9,1.28,21.41,8.67,22.56,22-2.29.21-5.82.2-8.04-.11-1.68-4.96-3.56-9.68-7.81-12.2-10.57-6.27-23.84-2-29.24,8.96s-5.19,24.18,2.09,34.55Z"/>
  <path d="M733.33,285.02c5.36,6.4,13.65,8.31,21.07,5.98,6.73-2.11,11.8-8.38,12.96-16.72,2.09-.62,5.21-.71,7.99-.38-1.03,15.42-13.21,25.91-28.25,25.07-11.55-.65-21.15-6.85-25.76-17.65-4.26-10-4.43-21.12-.89-31.42,4.78-13.9,17.77-21.25,32.18-19.68,11.96,1.31,21.43,9.2,22.35,22.01-2.35.32-5.85.32-7.9-.19-1.85-4.68-3.67-9.54-7.86-12.08-9.93-6.02-22.78-2.58-28.56,7.62-6.57,11.6-6.18,26.87,2.68,37.44Z"/>
  <path d="M552.44,359.02c0-1.75,6.06-1.89,7.71-.67l.05,62.83c-1.22,1.59-5.2,1.68-7.21.86l-.48-10.79c-4.75,9.34-14.49,13.89-25.49,13.03s-19.14-8.06-19.21-19.51l-.28-46.05c1.68-1.31,5.13-1.35,7.78-.55l.39,44.36c.08,8.68,6.21,14.38,14.31,14.96,15.57,1.1,22.05-11.91,22.16-24.78l.28-33.68Z"/>
  <path d="M603.01,435.13c-4.3,11.41-11.59,12.17-22.1,10.83l.07-6.93c4.63.58,9.6,1.47,12.57-2.45,3.12-4.11,4.87-9.37,6.57-14.68l-25.47-63.7c2.99-.6,5.54-.58,8.55-.1l21.06,53.75,19.66-53.75c2.72-.57,5.4-.51,8.07.12l-28.98,76.9Z"/>
  <path d="M1196.51,410.82c5.52,6.38,14.11,8.11,21.28,5.59,6.76-2.37,11.55-8.41,12.6-16.93l7.93-.41c-.97,14.14-11.31,24.72-25.22,25.27-12.91.51-23.9-6.05-28.84-17.93-4.28-10.28-4.33-21.69-.35-32.1,5.11-13.38,17.99-20.19,32.05-18.5,11.91,1.43,20.95,9.33,22.06,22.15l-7.93-.08c-1.66-5.05-3.31-9.52-7.56-12.27-9.47-6.14-22.3-3.24-28.39,6.53-7.31,11.73-6.98,27.89,2.36,38.68Z"/>
  <path d="M1188.53,290.82h4.98c1.21.02.93,4.54.44,5.87-3.99,1.77-10.47,1.56-15.44-.24-2.96-1.07-5.49-5.29-5.49-8.56l-.07-48.92-11.21-.23-.13-6.67,11.37-.04-.03-19.35h8.03s-.02,19.36-.02,19.36l13.15.02-.03,6.68-13.13.22.04,45.07c0,4.47,2.57,6.77,7.53,6.78Z"/>
  <path d="M673.68,165.23v6.77c-4.48.19-8.22.3-12.58-.07-5.27-.45-8.83-5.4-8.85-10.68l-.14-47.5-10.78-.26-.42-6.75,11.21-.33.08-19.21,8.17-.15.33,19.34,12.84.21v6.86s-12.96.22-12.96.22l-.08,46.03c0,2.62,2.93,5.45,5.14,5.47l8.04.04Z"/>
  <path d="M738.48,416.43c1.63-.15,4.88-.89,4.9.2l.13,6.09c-3.95.51-8.62.58-12.75.03-5.17-.68-8.37-5.51-8.38-10.7l-.14-47.47-10.67-.48c-.66-.98-.66-5-.04-6.5l10.92.06-.23-19.31,8.09-.33.25,19.4,11.65.35c1.66.05,1.98,5.33.61,6.25l-12.34.38-.05,45.53c0,4.36,3.37,6.92,8.06,6.49Z"/>
  <path d="M1319.49,296.87h-8.32s0-64.56,0-64.56l7.69-.33.41,14.16c4.1-9.63,12.67-15.54,23.94-15.04.21,2.54.16,5.29-.15,8.19-12.64-.46-23.24,8.65-23.32,21.18l-.25,36.4Z"/>
  <path d="M697.36,170.07c-.02,1.96-5.78,1.97-7.9.81l-.03-63.83c2.68-.31,5.63-.43,7.36-.33l.57,14.08c3.82-9.46,12.37-15.74,24.14-15.15l.04,8.15c-12.92-.59-23.67,8.72-23.81,21.68l-.37,34.59Z"/>
  <rect x="1282.43" y="232.04" width="8.35" height="65.06"/>
  <rect x="692.17" y="232.04" width="8.35" height="65"/>
  <rect x="1255.54" y="357.61" width="8.13" height="64.87"/>
  <rect x="865.17" y="258.5" width="63.09" height="7.58"/>
  <path d="M569.43,220.58c-2.31,2.55-5.68,3.97-8.95,1.82l12.82-17.21,9.77.36-13.64,15.03Z"/>
  <path d="M1311.74,345.82c-2.32,2.54-5.34,4.14-8.84,2.02l12.35-16.78,9.86.11-13.37,14.65Z"/>
  <rect x="1282.43" y="207.04" width="8.35" height="13.02"/>
  <rect x="692.17" y="207.04" width="8.35" height="13"/>
  <rect x="1255.54" y="332.61" width="8.13" height="12.88"/>
</svg>