<?xml version="1.0" encoding="UTF-8" standalone="no"?>
<svg
   xmlns:dc="http://purl.org/dc/elements/1.1/"
   xmlns:cc="http://creativecommons.org/ns#"
   xmlns:rdf="http://www.w3.org/1999/02/22-rdf-syntax-ns#"
   xmlns:svg="http://www.w3.org/2000/svg"
   xmlns="http://www.w3.org/2000/svg"
   viewBox="0 0 1159.0427 395.40933"
   height="395.40933"
   width="1159.0427"
   xml:space="preserve"
   id="svg2"
   version="1.1"><metadata
     id="metadata8"><rdf:RDF><cc:Work
         rdf:about=""><dc:format>image/svg+xml</dc:format><dc:type
           rdf:resource="http://purl.org/dc/dcmitype/StillImage" /></cc:Work></rdf:RDF></metadata><defs
     id="defs6"><clipPath
       id="clipPath18"
       clipPathUnits="userSpaceOnUse"><path
         id="path16"
         d="M 0,296.557 H 869.282 V 0 H 0 Z" /></clipPath></defs><g
     transform="matrix(1.3333333,0,0,-1.3333333,0,395.40933)"
     id="g10"><g
       id="g12"><g
         clip-path="url(#clipPath18)"
         id="g14"><g
           transform="translate(32.5024,63.3835)"
           id="g20"><path
             id="path22"
             style="fill:#656260;fill-opacity:1;fill-rule:nonzero;stroke:none"
             d="m 0,0 h 11.048 c 5.262,0 6.953,-0.96 6.953,-3.939 0,-3.019 -1.691,-3.979 -6.953,-3.979 H 0 Z m 24.446,-3.817 c 0,8.18 -6.334,9.28 -12.533,9.28 H -6.439 V -25.238 H 0 v 11.852 h 8.878 l 8.637,-11.74 0.09,-0.112 h 7.962 l -9.257,12.309 c 4.129,0.441 8.136,3.365 8.136,9.112" /></g><g
           transform="translate(70.7037,51.1601)"
           id="g24"><path
             id="path26"
             style="fill:#656260;fill-opacity:1;fill-rule:nonzero;stroke:none"
             d="M 0,0 H 18.163 V 5.63 H 0 v 6.428 h 21.098 v 5.63 H -6.439 v -30.706 h 28.028 v 5.63 L 0,-7.388 Z" /></g><g
           transform="translate(84.4878,76.9673)"
           id="g28"><path
             id="path30"
             style="fill:#656260;fill-opacity:1;fill-rule:nonzero;stroke:none"
             d="m 0,0 h -6.679 l -4.905,-6.501 h 4.324 z" /></g><g
           transform="translate(118.9254,50.6931)"
           id="g32"><path
             id="path34"
             style="fill:#656260;fill-opacity:1;fill-rule:nonzero;stroke:none"
             d="m 0,0 h -11.673 l 5.836,12.471 z m -2.31,18.157 h -7.059 l -14.881,-30.288 -0.201,-0.418 h 6.891 l 3.186,6.913 H 2.583 l 3.142,-6.913 h 6.847 L -2.226,17.995 Z" /></g><g
           transform="translate(142.5146,68.8479)"
           id="g36"><path
             id="path38"
             style="fill:#656260;fill-opacity:1;fill-rule:nonzero;stroke:none"
             d="m 0,0 h -6.439 v -30.701 h 28.24 v 5.787 H 0 Z" /></g><path
           id="path40"
           style="fill:#656260;fill-opacity:1;fill-rule:nonzero;stroke:none"
           d="m 170.061,38.144 h 6.439 v 30.701 h -6.439 z" /><g
           transform="translate(203.9257,56.4538)"
           id="g42"><path
             id="path44"
             style="fill:#656260;fill-opacity:1;fill-rule:nonzero;stroke:none"
             d="m 0,0 -7.12,1.077 c -6.489,0.803 -6.489,2.366 -6.489,3.114 0,2.572 3.978,3.481 7.694,3.481 7.678,0 9.542,-2.751 10.278,-4.821 l 0.095,-0.268 6.082,2.004 -0.1,0.279 c -0.731,2.048 -2.974,8.275 -16.193,8.275 -9.224,0 -14.307,-3.309 -14.307,-9.324 0,-4.738 3.94,-7.885 11.087,-8.861 l 7.204,-0.999 c 2.857,-0.363 6.278,-1.256 6.278,-3.482 0,-2.265 -3.566,-3.9 -8.476,-3.9 -7.483,0 -9.81,2.79 -10.998,5.228 l -0.106,0.223 -6.172,-1.947 0.078,-0.274 c 2.539,-8.224 13.677,-8.866 17.025,-8.866 9.592,0 15.093,3.672 15.093,10.077 C 10.953,-4.073 7.366,-1.133 0,0" /></g><g
           transform="translate(241.7978,50.6931)"
           id="g46"><path
             id="path48"
             style="fill:#656260;fill-opacity:1;fill-rule:nonzero;stroke:none"
             d="m 0,0 h -11.673 l 5.836,12.471 z m -2.31,18.157 h -7.059 l -14.881,-30.288 -0.201,-0.418 h 6.891 l 3.175,6.913 H 2.583 l 3.142,-6.913 h 6.847 L -2.226,17.995 Z" /></g><g
           transform="translate(250.8903,63.2167)"
           id="g50"><path
             id="path52"
             style="fill:#656260;fill-opacity:1;fill-rule:nonzero;stroke:none"
             d="m 0,0 h 13.436 v -25.076 h 6.445 V 0 H 33.318 V 5.636 H 0 Z" /></g><path
           id="path54"
           style="fill:#656260;fill-opacity:1;fill-rule:nonzero;stroke:none"
           d="m 289.834,38.144 h 6.439 v 30.701 h -6.439 z" /><g
           transform="translate(320.8855,43.0251)"
           id="g56"><path
             id="path58"
             style="fill:#656260;fill-opacity:1;fill-rule:nonzero;stroke:none"
             d="m 0,0 c -3.532,0 -11.746,1.032 -11.746,10.568 0,6.495 4.397,10.368 11.746,10.368 7.354,0 11.751,-3.873 11.751,-10.368 C 11.751,1.032 3.538,0 0,0 m 0,26.566 c -11.394,0 -18.191,-6.099 -18.191,-16.327 0,-2.65 0.876,-15.875 18.191,-15.875 17.32,0 18.191,13.225 18.191,15.875 0,10.228 -6.797,16.327 -18.191,16.327" /></g><g
           transform="translate(371.4191,47.5348)"
           id="g60"><path
             id="path62"
             style="fill:#656260;fill-opacity:1;fill-rule:nonzero;stroke:none"
             d="m 0,0 -19.613,21.22 -0.079,0.095 h -6.617 V -9.397 h 6.199 V 12.711 L 0.324,-9.302 0.402,-9.397 h 5.797 v 30.712 l -6.199,0 z" /></g><g
           transform="translate(404.6598,56.4538)"
           id="g64"><path
             id="path66"
             style="fill:#656260;fill-opacity:1;fill-rule:nonzero;stroke:none"
             d="m 0,0 -7.12,1.077 c -6.489,0.803 -6.489,2.366 -6.489,3.114 0,2.572 3.978,3.481 7.694,3.481 7.678,0 9.542,-2.751 10.278,-4.821 l 0.095,-0.268 6.082,2.004 -0.1,0.279 c -0.731,2.048 -2.974,8.275 -16.193,8.275 -9.224,0 -14.307,-3.309 -14.307,-9.324 0,-4.738 3.94,-7.885 11.087,-8.861 l 7.204,-0.999 c 2.857,-0.363 6.278,-1.256 6.278,-3.482 0,-2.265 -3.566,-3.9 -8.476,-3.9 -7.483,0 -9.804,2.79 -10.998,5.228 l -0.106,0.223 -6.172,-1.947 0.078,-0.274 c 2.539,-8.224 13.677,-8.866 17.025,-8.866 9.592,0 15.093,3.672 15.093,10.077 C 10.953,-4.073 7.366,-1.133 0,0" /></g><g
           transform="translate(456.1727,55.4611)"
           id="g68"><path
             id="path70"
             style="fill:#656260;fill-opacity:1;fill-rule:nonzero;stroke:none"
             d="M 0,0 H -11.869 V 7.756 H 0 C 3.398,7.756 5.998,7.472 5.998,3.895 5.998,0.285 3.398,0 0,0 M -1.283,13.386 H -18.319 V -17.32 h 6.45 v 11.684 h 10.586 c 5.139,0 13.732,0 13.732,9.492 0,9.53 -8.593,9.53 -13.732,9.53" /></g><g
           transform="translate(499.7971,51.7789)"
           id="g72"><path
             id="path74"
             style="fill:#656260;fill-opacity:1;fill-rule:nonzero;stroke:none"
             d="m 0,0 c 0,-7.711 -4.961,-8.755 -9.81,-8.755 -4.849,0 -9.809,1.044 -9.809,8.755 v 17.069 h -6.439 V -0.419 c 0,-9.262 5.468,-13.966 16.248,-13.966 10.786,0 16.249,4.704 16.249,13.966 V 17.069 H 0 Z" /></g><g
           transform="translate(520.6594,51.4877)"
           id="g76"><path
             id="path78"
             style="fill:#656260;fill-opacity:1;fill-rule:nonzero;stroke:none"
             d="m 0,0 h 12.493 c 4.319,0 6.244,-1.194 6.244,-3.861 0,-2.857 -1.802,-4.018 -6.244,-4.018 H 0 Z M 12.326,5.463 H 0 v 6.433 h 12.326 c 3.783,0 5.262,-0.909 5.262,-3.236 0,-2.304 -1.479,-3.197 -5.262,-3.197 m 8.526,-2.322 c 1.607,1.105 3.175,2.673 3.175,6.228 0,5.373 -3.95,7.996 -12.069,7.996 H -6.445 v -30.712 h 19.519 c 7.7,0 12.114,3.286 12.114,9.034 0,3.621 -2.109,6.283 -4.336,7.454" /></g><g
           transform="translate(558.8551,68.8479)"
           id="g80"><path
             id="path82"
             style="fill:#656260;fill-opacity:1;fill-rule:nonzero;stroke:none"
             d="m 0,0 h -6.439 v -30.701 h 28.24 v 5.787 H 0 Z" /></g><path
           id="path84"
           style="fill:#656260;fill-opacity:1;fill-rule:nonzero;stroke:none"
           d="m 586.402,38.144 h 6.439 v 30.701 h -6.439 z" /><g
           transform="translate(626.9314,49.2328)"
           id="g86"><path
             id="path88"
             style="fill:#656260;fill-opacity:1;fill-rule:nonzero;stroke:none"
             d="m 0,0 c -0.536,-2.143 -3.354,-6.211 -10.183,-6.211 -6.78,0 -11.171,4.04 -11.171,10.284 0,6.875 4.095,10.658 11.5,10.658 6.378,0 8.95,-3.688 9.402,-5.106 l 0.067,-0.206 h 6.473 l -0.157,0.53 c -2.349,8.604 -10.06,10.407 -16.114,10.407 -11.104,0 -17.739,-5.837 -17.739,-15.619 0,-10.222 6.623,-16.578 17.287,-16.578 9.692,0 15.757,4.163 17.069,11.724 L 6.501,0.218 H 0.05 Z" /></g><path
           id="path90"
           style="fill:#656260;fill-opacity:1;fill-rule:nonzero;stroke:none"
           d="m 639.779,38.144 h 6.439 v 30.701 h -6.439 z" /><g
           transform="translate(685.1791,68.8479)"
           id="g92"><path
             id="path94"
             style="fill:#656260;fill-opacity:1;fill-rule:nonzero;stroke:none"
             d="m 0,0 h -33.335 v -5.636 h 13.448 v -25.065 h 6.445 v 25.065 l 13.442,0 z" /></g><g
           transform="translate(706.139,50.6931)"
           id="g96"><path
             id="path98"
             style="fill:#656260;fill-opacity:1;fill-rule:nonzero;stroke:none"
             d="m 0,0 h -11.662 l 5.825,12.471 z m -2.31,18.157 h -7.059 l -14.881,-30.288 -0.201,-0.418 h 6.891 l 3.18,6.913 H 2.583 l 3.064,-6.746 0.078,-0.167 h 6.847 L -2.226,17.995 Z" /></g><path
           id="path100"
           style="fill:#656260;fill-opacity:1;fill-rule:nonzero;stroke:none"
           d="m 723.662,38.144 h 6.445 v 30.701 h -6.445 z" /><g
           transform="translate(744.9124,63.3835)"
           id="g102"><path
             id="path104"
             style="fill:#656260;fill-opacity:1;fill-rule:nonzero;stroke:none"
             d="m 0,0 h 11.037 c 5.268,0 6.958,-0.96 6.958,-3.939 0,-3.019 -1.69,-3.979 -6.958,-3.979 H 0 Z m 24.435,-3.817 c 0,8.18 -6.328,9.28 -12.528,9.28 H -6.45 V -25.238 H 0 v 11.852 h 8.872 l 8.638,-11.74 0.089,-0.112 h 7.963 l -9.263,12.309 c 4.14,0.441 8.136,3.365 8.136,9.112" /></g><g
           transform="translate(783.1081,51.1601)"
           id="g106"><path
             id="path108"
             style="fill:#656260;fill-opacity:1;fill-rule:nonzero;stroke:none"
             d="M 0,0 H 18.157 V 5.63 H 0 v 6.428 h 21.098 v 5.63 H -6.445 v -30.706 h 28.034 v 5.63 L 0,-7.388 Z" /></g><g
           transform="translate(829.3406,56.4538)"
           id="g110"><path
             id="path112"
             style="fill:#656260;fill-opacity:1;fill-rule:nonzero;stroke:none"
             d="m 0,0 -7.12,1.077 c -6.495,0.803 -6.495,2.366 -6.495,3.114 0,2.572 3.978,3.481 7.7,3.481 7.684,0 9.542,-2.751 10.273,-4.821 l 0.089,-0.268 6.093,2.004 -0.1,0.279 c -0.731,2.048 -2.98,8.275 -16.193,8.275 -9.224,0 -14.307,-3.309 -14.307,-9.324 0,-4.738 3.94,-7.885 11.087,-8.861 l 7.204,-0.999 c 2.863,-0.363 6.278,-1.256 6.278,-3.482 0,-2.265 -3.566,-3.9 -8.482,-3.9 -7.471,0 -9.798,2.79 -10.992,5.228 l -0.112,0.223 -6.166,-1.947 0.078,-0.274 c 2.55,-8.224 13.682,-8.866 17.025,-8.866 9.586,0 15.093,3.672 15.093,10.077 C 10.953,-4.073 7.371,-1.133 0,0" /></g><g
           transform="translate(689.4177,225.3137)"
           id="g114"><path
             id="path116"
             style="fill:#67b54c;fill-opacity:1;fill-rule:nonzero;stroke:none"
             d="m 0,0 h 26.56 l 0.597,-76.752 c 0,-34.724 -25.896,-46.079 -55.191,-46.079 -29.283,0 -55.191,11.355 -55.191,46.079 L -82.89,0 h 27.453 l -0.29,-77.734 c 0,-19.256 9.168,-26.003 27.693,-26.003 18.537,0 27.705,6.747 27.705,26.003 z" /></g><g
           transform="translate(764.7244,122.9141)"
           id="g118"><path
             id="path120"
             style="fill:#67b54c;fill-opacity:1;fill-rule:nonzero;stroke:none"
             d="m 0,0 h 30.36 c 15.942,0 22.917,5.904 22.917,17.225 0,11.311 -6.975,17.22 -22.917,17.22 H 0 Z m 0,52.808 h 30.36 c 13.158,0 19.731,6.233 19.731,14.436 0,8.202 -6.573,14.429 -19.731,14.429 H 0 Z m -25.344,49.589 H 28.05 c 28.698,0 47.943,-10.228 49.539,-31.387 0,-12.298 -6.177,-21.806 -21.918,-26.895 18.726,-6.233 25.104,-13.286 25.104,-31.32 0,-18.369 -15.741,-32.515 -52.401,-32.515 H -24.63 Z" /></g><g
           transform="translate(156.6463,102.6344)"
           id="g122"><path
             id="path124"
             style="fill:#67b54c;fill-opacity:1;fill-rule:nonzero;stroke:none"
             d="M 0,0 H -26.086 V 76.78 L -66.63,13.319 -106.778,76.657 V 0 h -26.086 v 121.559 h 27.163 l 39.216,-61.631 39.383,61.631 H 0 Z" /></g><g
           transform="translate(281.5782,102.6344)"
           id="g126"><path
             id="path128"
             style="fill:#67b54c;fill-opacity:1;fill-rule:nonzero;stroke:none"
             d="M 0,0 H -103.943 V 122.53 H -3.415 V 97.42 H -77.857 V 77.449 H -26.12 V 49.382 H -77.857 V 25.735 H 0 Z" /></g><g
           transform="translate(538.3416,168.6556)"
           id="g130"><path
             id="path132"
             style="fill:#67b54c;fill-opacity:1;fill-rule:nonzero;stroke:none"
             d="M 0,0 H -21.209 V 33.234 H 0 c 19.736,0 25.238,-6.294 25.238,-16.617 C 25.238,6.294 19.736,0 0,0 M 3.035,53.484 H -48.06 V 0 H -94.491 L -48.06,53.484 V 90.512 L -124.639,0 h -70.58 l 0.083,-21.717 51.91,0.173 c -0.078,-0.162 -17.811,-21.767 -42.424,-21.338 -30.98,0.53 -35.918,27.794 -35.918,38.719 0,11.3 3.7,20.177 11.322,27.119 6.534,5.965 14.496,8.855 24.328,8.855 12.605,0 22.683,-5.267 30.813,-16.115 l 3.113,-4.157 19.921,19.218 -0.101,0.145 c -13.514,19.278 -31.192,29.054 -52.518,29.054 -17.555,0 -32.302,-5.546 -43.853,-16.488 -13.079,-12.421 -19.719,-28.452 -19.719,-47.631 0,-19.502 12.956,-63.477 61.334,-63.7 27.169,-0.129 41.889,14.552 46.146,17.934 4.872,3.867 27.671,28.385 27.671,28.385 h 65.051 v -47.229 h 25.288 v 47.262 H 3.035 c 29.608,0 48.39,13.933 48.39,38.128 0,24.2 -18.782,36.867 -48.39,36.867" /></g></g></g></g></svg>