<?xml version="1.0" encoding="UTF-8" standalone="no"?>
<svg
   xmlns:dc="http://purl.org/dc/elements/1.1/"
   xmlns:cc="http://creativecommons.org/ns#"
   xmlns:rdf="http://www.w3.org/1999/02/22-rdf-syntax-ns#"
   xmlns:svg="http://www.w3.org/2000/svg"
   xmlns="http://www.w3.org/2000/svg"
   viewBox="0 0 659.98669 370.49332"
   height="370.49332"
   width="659.98669"
   xml:space="preserve"
   id="svg2"
   version="1.1"><metadata
     id="metadata8"><rdf:RDF><cc:Work
         rdf:about=""><dc:format>image/svg+xml</dc:format><dc:type
           rdf:resource="http://purl.org/dc/dcmitype/StillImage" /></cc:Work></rdf:RDF></metadata><defs
     id="defs6" /><g
     transform="matrix(1.3333333,0,0,-1.3333333,0,370.49333)"
     id="g10"><g
       transform="scale(0.1)"
       id="g12"><path
         id="path14"
         style="fill:#231f20;fill-opacity:1;fill-rule:nonzero;stroke:none"
         d="m 3422.29,1088.99 h 104.65 l 34.2,43.12 34.2,-43.12 h 103.15 l -95.73,123.44 h -80.28 l -100.19,-123.44" /><path
         id="path16"
         style="fill:#231f20;fill-opacity:1;fill-rule:nonzero;stroke:none"
         d="m 837.973,1552.22 h 2.207 l 56.504,-187.86 H 781.559 Z m -95.039,-299.3 H 933.77 l 26.808,-79.47 H 1112.83 L 894.492,1723.07 H 783.75 L 563.188,1173.45 h 150.777 l 28.969,79.47" /><path
         id="path18"
         style="fill:#231f20;fill-opacity:1;fill-rule:nonzero;stroke:none"
         d="M 816.484,839.922 1026.17,505.32 h 121.93 v 550.23 h -134.58 l 5.96,-344.261 -1.52,-1.5 -212.628,345.761 H 684.129 V 505.32 h 134.562 l -3.687,333.86 1.48,0.742" /><path
         id="path20"
         style="fill:#231f20;fill-opacity:1;fill-rule:nonzero;stroke:none"
         d="m 1581.58,932.121 v 123.429 h -305.6 V 505.32 h 305.6 v 123.418 h -171.04 v 94.453 h 165.83 v 123.43 h -165.83 v 85.5 h 171.04" /><path
         id="path22"
         style="fill:#231f20;fill-opacity:1;fill-rule:nonzero;stroke:none"
         d="m 1991.62,1506.99 1.45,0.68 209.38,-334.22 h 121.87 v 549.62 h -134.43 l 5.9,-343.88 -1.45,-1.57 -212.4,345.45 h -121.11 v -549.62 h 134.5 l -3.71,333.54" /><path
         id="path24"
         style="fill:#231f20;fill-opacity:1;fill-rule:nonzero;stroke:none"
         d="m 1322.23,1163.08 c 145.53,0 191.6,88.38 191.6,168.58 0,63.81 -26.01,111.45 -128.51,157.45 -98.74,44.63 -113.63,51.24 -113.63,83.95 0,26 23.8,43.04 48.28,43.04 43.09,0 47.5,-34.87 50.51,-53.42 h 138.89 c -1.51,31.22 -3.76,68.3 -36.42,108.43 -35.72,42.33 -94.34,62.39 -148.55,62.39 -92.06,0 -192.3,-58.69 -192.3,-162.01 0,-103.17 95.81,-141.77 134.39,-157.38 84.72,-35.64 107.71,-44.57 107.71,-80.88 0,-25.32 -20.07,-52.8 -53.5,-52.8 -17.83,0 -57.23,11.15 -57.23,74.98 h -139.51 v -17.8 c 0,-70.55 39.3,-174.53 198.27,-174.53" /><path
         id="path26"
         style="fill:#231f20;fill-opacity:1;fill-rule:nonzero;stroke:none"
         d="m 420.438,1379.19 c -8.918,-19.27 -44.52,-92.78 -132.204,-92.78 -91.351,0 -147.765,80.19 -147.765,163.38 0,78.01 52.742,160.41 146.996,160.41 75.742,0 117.39,-55.02 132.973,-95.84 H 567.492 C 552.605,1600.57 460.512,1733.5 288.234,1733.5 108.492,1733.5 0,1589.37 0,1449.04 c 0,-148.58 117.422,-285.96 289.73,-285.96 132.942,0 245.817,86.13 277.762,216.11 H 420.438" /><path
         id="path28"
         style="fill:#231f20;fill-opacity:1;fill-rule:nonzero;stroke:none"
         d="m 2672.03,1610.2 c 101.01,0 149.37,-91.4 149.37,-162.68 0,-70.51 -48.36,-161.11 -147.81,-161.11 -94.33,0 -151.52,78.64 -151.52,163.38 0,77.24 52.62,160.41 149.96,160.41 z m -1.42,-447.12 c 170.84,0 291.18,132.2 291.18,285.21 0,152.96 -121.17,285.21 -290.5,285.21 -153.68,0 -239.13,-103.29 -268.08,-174.58 -16.34,-40.12 -21.54,-80.96 -21.54,-117.38 0,-141.08 115.89,-278.46 288.94,-278.46" /><path
         id="path30"
         style="fill:#231f20;fill-opacity:1;fill-rule:nonzero;stroke:none"
         d="M 1673.37,1055.55 V 723.191 c 0,-81.062 9.67,-119.722 55.04,-169.531 45.35,-49.082 118.22,-58.762 158.38,-58.762 68.41,0 118.22,23.043 153.92,59.5 34.95,35.672 55.01,76.582 55.01,168.793 V 1055.55 H 1955.2 V 723.191 c 0,-43.871 0,-104.832 -69.89,-104.832 -69.14,0 -71.38,67.641 -71.38,104.832 v 332.359 h -140.56" /><path
         id="path32"
         style="fill:#231f20;fill-opacity:1;fill-rule:nonzero;stroke:none"
         d="m 1742.15,1723.07 h -140.34 v -549.62 h 140.34 v 549.62" /><path
         id="path34"
         style="fill:#231f20;fill-opacity:1;fill-rule:nonzero;stroke:none"
         d="m 2444.42,942.539 c 75.81,0 117.47,-55.039 133.06,-95.918 h 147.24 c -14.85,86.25 -107.05,219.339 -279.56,219.339 -179.92,0 -288.51,-144.249 -288.51,-284.788 0,-148.703 117.49,-286.274 290.03,-286.274 133.05,0 246.08,86.274 278.04,216.391 h -147.24 c -8.93,-19.328 -44.56,-92.93 -132.32,-92.93 -91.47,0 -147.98,80.282 -147.98,163.563 0,78.09 52.82,160.617 147.24,160.617" /><path
         id="path36"
         style="fill:#231f20;fill-opacity:1;fill-rule:nonzero;stroke:none"
         d="m 4243.85,505.32 h 305.6 v 123.418 h -171.04 v 94.453 h 165.81 v 123.43 h -165.81 v 85.5 h 171.04 v 123.429 h -305.6 V 505.32" /><path
         id="path38"
         style="fill:#231f20;fill-opacity:1;fill-rule:nonzero;stroke:none"
         d="m 3824.12,932.121 h 108.57 V 505.32 h 140.55 v 426.801 h 107.81 V 1055.55 H 3824.12 V 932.121" /><path
         id="path40"
         style="fill:#231f20;fill-opacity:1;fill-rule:nonzero;stroke:none"
         d="M 4787,628.738 V 1055.55 H 4646.47 V 505.32 h 303.38 V 628.738 H 4787" /><path
         id="path42"
         style="fill:#231f20;fill-opacity:1;fill-rule:nonzero;stroke:none"
         d="m 3503.89,696.41 56.51,188.121 h 2.22 l 56.52,-188.121 z m 2.22,359.14 -220.81,-550.23 h 150.93 l 29,79.578 h 191.07 l 26.78,-79.578 h 152.42 l -218.58,550.23 h -110.81" /><path
         id="path44"
         style="fill:#231f20;fill-opacity:1;fill-rule:nonzero;stroke:none"
         d="m 3307.42,1124.41 c 40.31,46.69 76.66,96.93 106.51,150.88 29.79,53.88 53.01,111.72 65.19,171.91 6.09,30.06 9.38,60.63 9.48,91.13 0.13,30.5 -2.97,60.89 -9.17,90.52 4.01,-30 4.84,-60.3 2.51,-90.25 -2.3,-29.95 -7.73,-59.53 -15.78,-88.28 -16.13,-57.56 -42.62,-111.58 -75.08,-161.3 -32.52,-49.77 -70.99,-95.45 -112.95,-137.39 -9.46,-9.45 -19.17,-18.65 -28.99,-27.71 1.91,6.55 3.83,12.6 5.8,17.74 30.06,78.45 47.51,170.58 57.56,253.77 10.08,83.16 9.36,167.5 -2.21,250.01 -2.77,19.95 -6.21,39.78 -10.21,59.48 6.52,-2.23 13.22,-3.92 20,-5.02 26.76,-4.43 54.75,0.29 78.28,13.16 5.88,3.21 11.49,6.87 16.74,11 5.23,4.11 10.16,8.57 14.72,13.72 9.02,10.14 15.84,22.17 19.93,34.99 4.13,12.82 5.52,26.43 4.17,39.7 -1.33,13.28 -5.46,26.23 -11.99,37.75 -3.26,5.76 -7.12,11.17 -11.47,16.11 -1.07,1.21 -2.24,2.49 -3.33,3.59 -1.25,1.27 -2.43,2.4 -3.69,3.52 -2.49,2.24 -5.13,4.29 -7.89,6.19 -11.02,7.57 -23.99,12.12 -37.15,13.21 -26.38,2.29 -53.4,-9.7 -68.06,-31.72 -7.16,-11.03 -10.5,-24.33 -9.54,-37.25 0.88,-12.93 6.11,-25.43 14.55,-35.03 8.35,-9.83 20.81,-15.97 33.51,-16.61 12.7,-0.77 25.51,3.88 34.61,12.47 l -1.48,1.65 c -9.03,-7.79 -21.2,-11.52 -32.84,-10.29 -11.66,1.12 -22.55,7.16 -29.62,16.28 -7.27,9.07 -11.4,20.45 -11.67,31.89 -0.34,11.45 3.14,22.86 9.68,32.02 3.26,4.59 7.27,8.6 11.82,12 4.54,3.43 9.5,6.27 14.74,8.4 10.46,4.3 21.98,5.75 33.06,4.32 11.09,-1.42 21.72,-5.72 30.52,-12.36 2.2,-1.66 4.3,-3.45 6.26,-5.38 0.98,-0.95 1.95,-1.98 2.8,-2.92 1.01,-1.11 1.85,-2.12 2.75,-3.24 3.52,-4.37 6.57,-9.09 9.1,-14.05 10.21,-19.86 11.45,-43.79 3.76,-64.28 -3.8,-10.25 -9.7,-19.63 -17.25,-27.4 -3.69,-3.83 -8,-7.4 -12.5,-10.62 -4.5,-3.22 -9.26,-6.03 -14.2,-8.45 -19.76,-9.69 -42.62,-12.4 -63.82,-7.91 -10.61,2.22 -20.78,6.2 -30,11.69 -0.54,0.33 -1.04,0.7 -1.57,1.03 -12.05,50.59 -28.02,100.1 -47.38,148.03 -3.4,8.42 -6.95,16.77 -10.55,25.1 0.06,1.84 0,3.68 0.08,5.52 0.79,17.79 2.61,35.57 5.49,53.18 5.78,35.18 15.86,69.79 31.34,101.99 15.43,32.18 36.48,61.81 62.76,86.29 26.21,24.54 57.47,43.7 91.07,57.13 l -0.79,2.08 c -34.33,-12.13 -66.87,-30.21 -94.73,-54.24 -27.93,-23.94 -50.94,-53.61 -68.25,-86.22 -17.37,-32.63 -29.28,-68.02 -36.75,-104.19 -1.22,-5.92 -2.14,-11.9 -3.13,-17.87 -0.18,0.75 -0.42,1.47 -0.6,2.22 -5.09,21.06 -9.05,42.45 -11.92,63.99 -5.73,43.09 -7.04,86.87 -3.43,130.33 3.6,43.46 12.19,86.6 25.97,128.17 13.75,41.57 32.7,81.51 56.16,118.74 l -1.85,1.21 c -25.01,-36.41 -45.73,-75.91 -61.32,-117.48 -15.62,-41.56 -26.11,-85.11 -31.53,-129.34 -5.44,-44.24 -5.88,-89.13 -1.74,-133.63 0.76,-8.14 1.84,-16.24 2.91,-24.36 -0.57,1.07 -1.1,2.15 -1.66,3.2 -4.94,9.19 -9.66,17.73 -14.28,26.53 -4.64,8.8 -9.18,17.64 -13.61,26.53 -8.86,17.78 -17.28,35.77 -25.18,53.96 -15.8,36.39 -29.55,73.64 -40.21,111.71 -10.64,38.05 -18.2,76.96 -21.08,116.23 -2.89,39.24 -0.99,78.87 7.37,117.3 8.3,38.4 23.24,75.45 44.63,108.74 21.31,33.33 48.88,62.77 80.48,87.22 15.79,12.23 32.58,23.26 50.12,32.97 8.78,4.86 17.74,9.38 26.89,13.54 9.14,4.12 18.47,7.98 27.97,11.06 l -0.59,2.14 c -9.85,-2.68 -19.37,-6.11 -28.82,-9.84 -9.42,-3.75 -18.7,-7.89 -27.81,-12.38 -18.22,-8.99 -35.8,-19.36 -52.49,-31.07 -33.4,-23.39 -63.29,-52.32 -87.14,-85.95 -23.9,-33.58 -41.52,-71.78 -52.18,-111.83 -0.96,-3.56 -1.79,-7.15 -2.64,-10.73 -5.06,18.9 -11.85,37.29 -20.49,54.74 -9.96,20.15 -22.23,39.08 -36.44,56.31 -14.2,17.24 -30.3,32.77 -47.73,46.48 l -1.42,-1.7 c 16.51,-14.58 31.5,-30.8 44.43,-48.46 12.94,-17.64 23.8,-36.71 32.31,-56.7 8.51,-20 14.68,-40.91 18.43,-62.18 1.7,-9.67 2.84,-19.43 3.5,-29.19 -3.09,-23.77 -4.23,-47.79 -3.6,-71.7 0.41,-16.06 1.76,-32.05 3.56,-47.99 -6.35,-7.96 -14.47,-14.43 -23.86,-18.65 -13.07,-5.94 -28.22,-7.44 -42.33,-4.01 -7,1.69 -13.98,4.6 -19.91,8.49 -5.98,3.93 -11.13,9.14 -15.03,15.2 -7.87,12.1 -10.46,27.66 -6.73,41.84 1.87,7.08 5.08,13.91 9.77,19.37 4.7,5.51 10.9,9.76 17.78,12.24 6.89,2.48 14.45,3.18 21.73,1.92 7.23,-1.29 14.37,-4.34 19.78,-9.25 5.46,-4.9 9.27,-11.66 10.67,-18.97 1.43,-7.3 0.41,-15.08 -2.92,-21.83 -3.19,-6.74 -9.21,-12.06 -16.38,-14.39 -7.15,-2.4 -15.3,-1.75 -22.05,1.87 l -1.07,-1.94 c 7.12,-4.15 16.02,-5.22 24.02,-2.84 8.02,2.28 15.07,8.05 18.93,15.54 3.96,7.35 5.44,16.06 4.1,24.4 -1.29,8.34 -5.36,16.27 -11.51,22.2 -12.5,11.79 -31.32,15.4 -47.61,10.1 -8.13,-2.6 -15.63,-7.35 -21.46,-13.71 -1.46,-1.6 -2.82,-3.27 -4.06,-5.04 -0.63,-0.89 -1.21,-1.77 -1.8,-2.75 -0.53,-0.85 -1.08,-1.82 -1.58,-2.74 -2.02,-3.74 -3.66,-7.7 -4.87,-11.8 -4.94,-16.4 -2.61,-34.88 6.32,-49.74 4.42,-7.44 10.43,-13.98 17.53,-19.03 7.18,-5.04 14.96,-8.56 23.28,-10.92 16.59,-4.65 34.78,-3.55 50.85,3.07 7.49,3.07 14.49,7.35 20.73,12.57 2.7,-18.76 6.15,-37.41 10.37,-55.84 9.21,-40.19 21.64,-79.5 36.19,-117.9 7.27,-19.21 15.08,-38.19 23.35,-56.96 4.13,-9.38 8.37,-18.72 12.71,-27.99 4.33,-9.29 8.93,-18.65 13.13,-27.45 17.05,-35.8 32.21,-72.4 45.23,-109.65 26.05,-74.48 43.37,-151.67 50.45,-229.54 3.82,-41.6 4.61,-83.36 2.63,-124.93 -6.75,19.03 -15.01,37.56 -25.13,55.05 -12.15,21 -26.88,40.53 -43.96,57.62 -17.05,17.12 -36.39,31.75 -57.13,43.6 -20.74,11.87 -42.83,20.98 -65.46,27.72 -22.63,6.75 -45.81,11.14 -69.08,13.78 l -0.33,-2.19 c 22.91,-4.29 45.46,-10.28 67.1,-18.47 21.62,-8.17 42.32,-18.54 61.29,-31.29 18.97,-12.74 36.17,-27.85 50.91,-44.97 14.78,-17.09 27.09,-36.13 36.91,-56.33 19.67,-40.49 28.5,-85.33 32.37,-130.2 0.55,-6.41 0.86,-13.81 0.97,-21.81 -0.03,-0.17 -0.05,-0.34 -0.08,-0.51 -12.98,-76.63 -10.44,-75.66 -44.58,-145.19 -19.01,-38.73 -44.87,-67.52 -64.7,-100.84 -0.47,-0.25 -0.91,-0.51 -1.36,-0.75 -2.36,-1.26 -4.78,-2.4 -7.23,-3.45 -4.91,-2.12 -10.01,-3.79 -15.22,-5.07 -10.43,-2.53 -21.32,-3.33 -32.11,-2.31 -21.59,1.96 -42.63,11.3 -58.65,26.39 -4,3.77 -7.72,7.86 -11.07,12.26 -3.35,4.41 -6.41,9.1 -8.81,13.85 -4.91,9.64 -7.79,20.35 -8.38,31.26 -1.31,21.85 6.95,44.35 22.56,60.31 3.89,4 8.19,7.6 12.84,10.74 1.2,0.8 2.29,1.52 3.59,2.28 1.09,0.65 2.32,1.35 3.54,1.96 2.44,1.27 4.98,2.36 7.57,3.3 10.36,3.75 21.79,4.72 32.8,2.8 11.01,-1.91 21.59,-6.7 30.32,-13.89 4.37,-3.58 8.27,-7.76 11.6,-12.38 3.34,-4.59 5.99,-9.6 7.75,-14.95 3.55,-10.68 3.5,-22.62 -0.2,-33.45 -3.64,-10.86 -10.94,-20.51 -20.57,-27.03 -9.45,-6.62 -21.63,-9.18 -33.11,-6.81 -11.48,2.26 -22,9.42 -28.34,19.53 l -1.89,-1.15 c 6.16,-10.88 17.02,-19.11 29.38,-22.12 12.32,-3.14 26.05,-0.95 36.92,5.98 10.9,6.68 19.59,17.08 24.25,29.17 4.72,12.06 5.45,25.75 1.87,38.41 -7.51,25.36 -29.77,44.79 -55.65,50.39 -12.91,2.84 -26.63,2.33 -39.4,-1.65 -3.19,-1 -6.33,-2.18 -9.37,-3.58 -1.53,-0.7 -2.99,-1.44 -4.56,-2.28 -1.36,-0.73 -2.86,-1.61 -4.24,-2.44 -5.62,-3.44 -10.9,-7.47 -15.72,-12.01 -9.64,-9.09 -17.41,-20.23 -22.6,-32.53 -5.2,-12.28 -7.89,-25.69 -7.73,-39.16 0.13,-13.46 3.09,-26.96 8.71,-39.32 2.83,-6.26 6.23,-11.98 10.02,-17.45 3.79,-5.49 8.07,-10.65 12.74,-15.45 18.68,-19.24 44.03,-32.02 70.91,-35.68 13.43,-1.87 27.21,-1.51 40.63,1.12 0.38,0.07 0.76,0.19 1.14,0.27 -7.55,-19.83 -12.37,-42.12 -12.4,-69.14 V 848.84 h -179.94 v 206.71 H 2782.68 V 505.32 h 140.53 v 220.078 h 179.94 V 505.32 h 140.53 v 403.461 c 7.68,137.439 63.74,215.629 63.74,215.629" /><path
         id="path46"
         style="fill:#231f20;fill-opacity:1;fill-rule:nonzero;stroke:none"
         d="m 2979.57,1755.3 c -0.46,1.42 -0.98,2.79 -1.65,3.93 -5.02,8.54 -17.22,11.71 -29.01,15.16 -7.37,2.09 -17.2,4.31 -21.34,10.29 -2.48,3.59 -3.87,8.36 -6.8,10.32 -0.8,0.51 -2.4,0.06 -3.69,-0.72 -0.15,-0.08 -0.28,-0.13 -0.43,-0.22 -6.54,-3.97 -11.79,-9.21 -15.52,-15.28 -3.74,-6.05 -6.06,-12.77 -7.12,-19.51 -2.12,-13.49 0.8,-27.02 7.79,-37.17 7.79,-11.28 19.22,-21.51 34.73,-26.01 4.8,-1.37 10.79,-2.6 17.35,-2.71 0.86,-0.03 1.66,0 2.49,0.01 0.49,0.01 0.95,-0.03 1.44,0 0.07,0 0.13,0.03 0.19,0.03 0.52,0.03 1.07,0 1.58,0.04 3.72,0.33 7.17,1.28 10.25,2.81 7.35,3.63 9.99,10.34 10.91,15.32 h -0.01 c 0.01,0.06 0.04,0.14 0.05,0.19 h -0.01 c 0.01,0.05 0.04,0.14 0.05,0.18 l -0.03,0.01 c 0.01,0.06 0.05,0.12 0.06,0.18 l -0.04,0.01 c 0.02,0.06 0.07,0.12 0.08,0.18 l -0.07,0.01 c 0.02,0.07 0.09,0.12 0.1,0.19 l -1.27,0.21 0.01,0.08 0.15,0.09 1.13,-0.28 -0.04,0.25 0.09,-0.02 c 0.01,0.08 -0.01,0.13 -0.01,0.2 h 0.05 c 0.01,0.06 -0.01,0.12 0,0.19 l 0.03,-0.01 c 0.01,0.07 0.01,0.13 0.02,0.19 h 0.02 c 0.01,0.07 0.01,0.13 0.02,0.19 h 0.01 c 0.05,0.26 0.03,0.49 0.07,0.74 0.12,0.81 0.2,1.62 0.22,2.4 0.29,3.18 0.27,6.24 0.09,9.39 l -0.04,0.82 c -0.21,3.33 -0.43,8.21 -0.01,12.29 0.89,6.33 0.12,12.11 -1.89,16.03" /><path
         id="path48"
         style="fill:#231f20;fill-opacity:1;fill-rule:nonzero;stroke:none"
         d="m 3480.57,1645.24 c 0.91,-0.1 1.83,-0.15 2.79,-0.1 7.46,-0.2 15.85,2.35 25.1,7.99 7.15,4.45 12.71,9.49 16.05,14.31 1.38,1.59 2.65,3.19 3.63,4.76 3.57,5.76 5.06,12.2 5.62,19.09 0.58,6.88 0.21,14.21 0,21.38 -0.33,9.01 -1.33,20.5 3.43,28.47 2.87,4.82 7.34,9.33 8.88,14.85 0.4,1.42 -0.38,2.62 -1.52,3.32 -0.26,0.19 -0.55,0.38 -0.89,0.52 -14.16,6.1 -29.54,6.29 -43.48,1.38 -13.91,-4.85 -26.26,-14.86 -33.79,-27.49 -8.39,-13.99 -14.04,-31.38 -12.74,-48.16 0.37,-5 1.23,-10.71 2.93,-16.15 0.12,-0.45 0.31,-0.86 0.45,-1.31 0.3,-0.88 0.56,-1.77 0.91,-2.63 0.06,-0.16 0.15,-0.3 0.22,-0.46 1.31,-3.46 2.85,-6.77 4.86,-9.66 3.79,-5.51 8.81,-8.79 14.92,-9.77 l 0.01,0.03 c 0.06,-0.01 0.12,-0.05 0.18,-0.06 v 0.03 c 0.07,-0.01 0.12,-0.05 0.18,-0.06 l 0.01,0.04 c 0.06,-0.01 0.11,-0.05 0.18,-0.06 v 0.03 c 0.06,-0.01 0.13,-0.06 0.18,-0.06 l 0.02,0.11 c 0.07,-0.02 0.09,-0.13 0.17,-0.15 l 0.21,1.38 0.18,-0.1 -0.23,-1.3 c 0.08,-0.01 0.13,0.02 0.21,0.01 l -0.01,-0.04 c 0.06,-0.01 0.13,0.03 0.19,0.02 l -0.01,-0.05 c 0.06,-0.01 0.13,0.01 0.19,0 v -0.03 c 0.06,-0.01 0.12,0 0.19,-0.01 l -0.01,-0.02 c 0.06,-0.01 0.13,0 0.19,-0.01 v -0.02 c 0.19,-0.03 0.4,0 0.6,-0.02" /><path
         id="path50"
         style="fill:#231f20;fill-opacity:1;fill-rule:nonzero;stroke:none"
         d="m 3521.11,1620.65 c -3.17,-4.82 -5.82,-9.57 -7.72,-14.21 -1.91,-4.66 -3.05,-9.2 -3.46,-14.25 -0.18,-2.23 -0.35,-4.8 -0.46,-7.55 -0.31,-3.05 -0.49,-6.27 -0.49,-9.84 0,-1.73 0.03,-3.53 0.1,-5.41 0.3,-6.52 1.78,-11.86 4.54,-16.35 l 0.03,0.02 c 0.03,-0.06 0.04,-0.12 0.07,-0.18 l 0.02,0.02 c 0.04,-0.06 0.05,-0.12 0.08,-0.17 l 0.02,0.01 c 0.03,-0.05 0.04,-0.12 0.08,-0.17 l 0.04,0.03 c 0.04,-0.06 0.02,-0.13 0.06,-0.19 l 0.04,0.03 c 0.03,-0.06 0.02,-0.13 0.05,-0.19 l 1.2,0.73 0.02,-0.19 -1.11,-0.7 c 0.03,-0.07 0.09,-0.07 0.14,-0.13 l -0.05,-0.03 c 0.03,-0.05 0.1,-0.08 0.14,-0.13 l -0.04,-0.02 c 0.03,-0.05 0.09,-0.09 0.12,-0.14 l -0.03,-0.02 c 0.04,-0.05 0.09,-0.09 0.12,-0.15 l -0.02,-0.01 c 0.03,-0.05 0.08,-0.09 0.11,-0.15 l -0.01,-0.01 c 0.06,-0.1 0.17,-0.17 0.23,-0.27 0.68,-1.03 1.5,-1.98 2.4,-2.85 2.38,-2.75 5.14,-5.18 8.55,-6.8 4.75,-2.29 10.42,-3.37 16.39,-3.12 5.75,0.22 11.9,1.74 17.33,4.28 2.98,1.39 5.71,3.09 8.12,4.96 2.55,1.69 4.86,3.53 6.8,5.46 6.86,6.81 10.75,15.24 12.66,23.55 1.93,8.35 1.94,16.64 1.49,24.24 -0.55,9.62 -3.05,20.71 0.23,28.86 2,4.95 5.47,9.74 5.86,14.94 0.11,1.33 -0.89,2.33 -2.12,2.83 -0.29,0.15 -0.61,0.28 -0.96,0.38 -14.88,3.98 -29.87,1.87 -42.41,-3.96 -12.56,-5.8 -22.51,-14.61 -28.16,-23.15" /><path
         id="path52"
         style="fill:#231f20;fill-opacity:1;fill-rule:nonzero;stroke:none"
         d="m 3451.6,1584.79 c 0.03,0.08 0.01,0.13 0.04,0.19 l 0.04,-0.01 c 0.02,0.05 0.01,0.12 0.03,0.18 l 0.04,-0.02 c 0.03,0.06 0.03,0.13 0.05,0.19 l 0.03,-0.02 c 0.03,0.06 0.03,0.13 0.06,0.18 l 0.02,-0.01 c 0.02,0.06 0.03,0.12 0.06,0.17 l 0.01,-0.01 c 0.07,0.14 0.08,0.32 0.15,0.46 0.4,0.97 0.72,1.98 0.95,3.03 2.29,7.51 1.68,16.73 -2.15,26.08 -3.02,7.34 -7.2,13.82 -11.27,17.83 -1.28,1.6 -2.54,3.02 -3.74,4.12 -1.07,0.97 -2.12,1.79 -3.2,2.49 -0.51,0.34 -1.04,0.66 -1.59,0.94 -0.68,0.38 -1.4,0.75 -2.11,1.08 -0.67,0.3 -1.89,0.84 -2.2,0.89 -0.51,0.15 -1,0.27 -1.5,0.37 -1,0.2 -1.99,0.31 -2.97,0.36 -3.93,0.24 -7.79,-0.71 -12.3,-0.28 -2.8,0.24 -6.4,1.07 -9.76,3.21 -3.34,2.1 -6.36,5.35 -7.93,9.39 -1.9,4.89 -2.95,11.41 -6.91,16 -1.01,1.16 -2.43,1.17 -3.61,0.6 -0.32,-0.12 -0.64,-0.27 -0.96,-0.49 -6.31,-4.46 -11.67,-9.68 -16.22,-15.19 -4.54,-5.54 -8.3,-11.33 -10.89,-17.74 -2.55,-6.41 -3.95,-13.69 -2.65,-22.35 1.2,-8.57 5.68,-18.49 12.36,-26.17 3.66,-4.29 7.81,-8.11 12.08,-11.28 2.14,-1.59 4.31,-3.03 6.48,-4.31 1.09,-0.64 2.18,-1.25 3.27,-1.82 l 1.63,-0.83 0.82,-0.39 0.57,-0.24 c 2.91,-1.25 7.47,-3.1 11.44,-4.08 4.05,-1.06 7.95,-1.58 11.76,-1.69 5.54,-0.16 11.58,0.35 17.31,2.03 3.51,0.88 6.96,2.02 10.23,3.72 5.54,2.91 9.59,7.08 12.06,12.41 l -0.02,0.01 c 0.03,0.06 0.07,0.1 0.1,0.16 l -0.02,0.01 c 0.03,0.06 0.07,0.1 0.1,0.16 l -0.03,0.01 c 0.03,0.05 0.08,0.11 0.1,0.16 l -0.03,0.01 c 0.03,0.06 0.09,0.11 0.11,0.16 l -0.06,0.03 c 0.04,0.05 0.11,0.07 0.14,0.14 l -1.27,0.59 0.15,0.13 1.2,-0.56" /><path
         id="path54"
         style="fill:#231f20;fill-opacity:1;fill-rule:nonzero;stroke:none"
         d="m 3076.55,1665.13 c -0.84,0.75 -1.71,1.44 -2.63,2.04 -3.07,2.33 -6.27,4.25 -8.97,5.56 -3.75,1.8 -7.89,3.49 -12.66,5.17 -8.14,2.8 -13.48,3.87 -17.32,3.54 -1.34,0.13 -2.66,0.23 -3.8,0.13 -4.67,-0.42 -8.52,-2.81 -12.42,-6.2 -3.87,-3.38 -7.77,-7.75 -11.88,-11.9 -2.58,-2.62 -5.51,-5.71 -8.78,-8.16 -3.26,-2.44 -6.87,-4.24 -10.45,-4.27 -4.37,-0.05 -8.98,1.55 -13.15,0.25 -1.09,-0.33 -1.66,-1.63 -1.76,-2.98 -0.04,-0.3 -0.07,-0.62 -0.07,-0.97 0.21,-7.66 1.73,-14.92 4.68,-21.43 2.93,-6.51 7.26,-12.27 12.62,-16.9 10.68,-9.3 25.5,-13.89 39.47,-12.23 7.77,0.89 15.76,3.01 23.21,6.59 7.45,3.56 14.37,8.58 19.75,14.95 3.29,3.88 6.63,8.79 8.94,14.13 2.22,4.73 3.54,9.64 3.71,14.47 0.23,6.37 -1.94,11.91 -6.54,16.4 l -0.01,-0.01 c -0.05,0.04 -0.08,0.1 -0.12,0.14 l -0.02,-0.01 c -0.04,0.04 -0.07,0.1 -0.11,0.14 l -0.03,-0.02 c -0.04,0.05 -0.06,0.11 -0.11,0.15 l -0.03,-0.03 c -0.04,0.05 -0.05,0.12 -0.1,0.17 l -0.05,-0.05 c -0.04,0.05 -0.04,0.13 -0.09,0.18 l -0.97,-1.01 -0.08,0.19 0.94,0.93 c -0.07,0.07 -0.16,0.01 -0.23,0.06 l 0.08,0.08 c -0.04,0.05 -0.12,0.05 -0.17,0.1 l 0.04,0.03 c -0.04,0.05 -0.11,0.07 -0.16,0.11 l 0.03,0.02 c -0.05,0.05 -0.1,0.08 -0.15,0.12 l 0.01,0.01 c -0.04,0.05 -0.09,0.08 -0.14,0.12 l 0.01,0.01 c -0.15,0.15 -0.33,0.24 -0.49,0.38" /><path
         id="path56"
         style="fill:#231f20;fill-opacity:1;fill-rule:nonzero;stroke:none"
         d="m 3064.53,1818.51 c -0.26,0.95 -1.55,1.58 -2.9,1.79 -0.29,0.07 -0.59,0.13 -0.91,0.16 -7.61,0.65 -14.98,-0.14 -21.66,-2.85 -6.66,-2.67 -12.58,-7.22 -17.12,-13.05 -4.57,-5.81 -7.77,-12.84 -9.39,-20.12 -1.62,-7.28 -1.69,-14.8 -0.31,-21.74 3.04,-15.49 11.01,-30.36 23.19,-39.47 4.5,-3.4 10.24,-6.91 16.46,-8.81 0.03,-0.01 0.06,-0.01 0.09,-0.02 3.39,-1.18 6.82,-2.05 10.3,-2.28 6.23,-0.43 11.82,1.34 16.63,5.27 l -0.01,0.01 c 0.05,0.04 0.11,0.07 0.16,0.11 l -0.02,0.01 c 0.05,0.04 0.11,0.06 0.16,0.1 l -0.02,0.03 c 0.05,0.04 0.12,0.05 0.17,0.09 l -0.02,0.03 c 0.04,0.03 0.12,0.06 0.16,0.09 l -0.04,0.05 c 0.06,0.04 0.13,0.02 0.18,0.07 l -0.89,1.08 0.2,0.06 0.83,-1.04 c 0.06,0.05 0.07,0.11 0.12,0.16 l 0.03,-0.03 c 0.05,0.04 0.07,0.11 0.11,0.15 l 0.03,-0.03 c 0.05,0.03 0.08,0.09 0.13,0.13 l 0.02,-0.02 c 0.04,0.04 0.08,0.1 0.13,0.14 l 0.01,-0.02 c 0.05,0.04 0.09,0.11 0.13,0.15 l 0.02,-0.03 c 6.28,5.2 11.07,13.2 14.63,24.46 2.33,7.64 3.11,14.1 2.43,18.81 0,1.66 -0.06,3.26 -0.31,4.64 -0.95,5.25 -3.78,9.32 -7.52,13.06 -3.73,3.72 -8.36,7.12 -12.74,10.67 -2.76,2.23 -6,4.73 -8.56,7.59 -2.56,2.85 -4.45,6.11 -4.48,9.3 -0.07,3.93 1.65,7.75 0.58,11.3" /><path
         id="path58"
         style="fill:#231f20;fill-opacity:1;fill-rule:nonzero;stroke:none"
         d="m 3036.17,2549.7 c 0.36,-0.46 0.76,-0.86 1.13,-1.29 0.56,-0.61 1.06,-1.29 1.65,-1.86 0.09,-0.09 0.2,-0.16 0.3,-0.25 3.04,-3.1 6.37,-5.69 9.87,-7.45 5.27,-2.65 10.55,-2.91 15.48,-1.05 1.03,0.31 1.94,0.72 2.75,1.16 0.04,0.02 0.08,0.03 0.12,0.06 h -0.01 c 0.06,0.03 0.12,0.06 0.17,0.09 l -0.01,0.02 c 0.05,0.03 0.12,0.04 0.17,0.07 l -0.02,0.03 c 0.06,0.04 0.13,0.03 0.19,0.06 l -0.03,0.05 c 0.06,0.03 0.13,0.01 0.19,0.05 l -0.04,0.07 c 0.05,0.02 0.17,0 0.21,0.02 l -0.7,1.2 0.2,0.03 0.62,-1.16 c 0.09,0.05 0.05,0.16 0.12,0.22 l 0.07,-0.11 c 0.06,0.03 0.08,0.1 0.13,0.14 l 0.03,-0.05 c 0.06,0.03 0.09,0.09 0.14,0.12 l 0.02,-0.03 c 0.06,0.03 0.1,0.09 0.15,0.12 l 0.02,-0.03 c 0.05,0.03 0.09,0.08 0.15,0.11 l 0.01,-0.02 c 0.19,0.12 0.33,0.28 0.52,0.4 0.89,0.57 1.73,1.19 2.5,1.89 2.97,2.27 5.66,4.87 7.89,7.38 2.55,2.92 4.91,5.79 7.2,8.58 l 1.61,1.94 c 4.73,5.79 8.25,10.42 9.81,14.64 0.75,1.34 1.44,2.67 1.88,3.96 1.66,4.86 1.36,10.19 0.31,16.22 -1.07,5.99 -2.89,12.62 -4.41,19.31 -1.96,8.36 -4.75,19.37 -1.16,27.71 2.15,5.04 5.96,9.95 6.78,15.49 0.22,1.43 -0.71,2.51 -1.93,3.07 -0.28,0.17 -0.58,0.32 -0.93,0.42 -14.74,4.48 -30.07,2.86 -43.28,-4.05 -13.18,-6.83 -24.17,-18.98 -29.49,-33.77 -2.96,-8.21 -4.98,-17.37 -5.33,-26.99 -0.35,-9.59 1.02,-19.69 4.72,-28.99 2.25,-5.73 5.71,-12.17 10.23,-17.53" /><path
         id="path60"
         style="fill:#231f20;fill-opacity:1;fill-rule:nonzero;stroke:none"
         d="m 3323.32,2709.04 c 0.03,-0.05 0.04,-0.11 0.07,-0.17 l 0.02,0.01 c 0.03,-0.06 0.04,-0.12 0.07,-0.17 l 0.02,0.01 c 0.02,-0.05 0.04,-0.13 0.07,-0.18 l 0.04,0.03 c 0.03,-0.05 0.02,-0.14 0.05,-0.19 l 0.04,0.02 c 0.02,-0.05 0.02,-0.13 0.05,-0.18 l 1.2,0.66 0.03,-0.2 -1.15,-0.62 c 0.04,-0.07 0.09,-0.09 0.13,-0.15 l -0.04,-0.02 c 0.04,-0.05 0.11,-0.08 0.14,-0.13 l -0.05,-0.03 c 0.03,-0.05 0.09,-0.09 0.12,-0.14 l -0.03,-0.02 c 0.03,-0.05 0.09,-0.1 0.12,-0.16 l -0.03,-0.01 c 0.03,-0.05 0.08,-0.1 0.11,-0.15 l -0.02,-0.01 c 5.25,-9.47 16.72,-14.3 25.43,-16.69 8.44,-2.27 16.76,-2.94 23.41,-2.08 2.47,0.08 4.84,0.29 6.99,0.68 15.18,2.81 26.85,13.73 38.57,23.65 7.27,6.24 16.22,14.51 26.01,15.67 5.91,0.71 12.41,-0.21 17.97,1.63 1.45,0.47 2.03,1.81 1.96,3.15 0.02,0.32 0.01,0.65 -0.06,1 -1.47,7.58 -4.51,14.58 -9.08,20.66 -4.54,6.07 -10.58,11.22 -17.6,15.11 -14.02,7.83 -31.87,10.43 -47.89,7.4 -17.88,-3.29 -35.93,-11.04 -48.8,-23.22 -4.08,-3.79 -8.37,-8.52 -11.85,-13.7 -3.11,-4.32 -5.52,-8.82 -7.08,-13.4 -0.98,-2.87 -1.47,-5.63 -1.47,-8.28 0,-3.46 0.83,-6.74 2.51,-9.79 l 0.02,0.01" /><path
         id="path62"
         style="fill:#231f20;fill-opacity:1;fill-rule:nonzero;stroke:none"
         d="m 3291.62,2576.88 c 1.29,1.01 1.38,2.43 0.86,3.63 -0.11,0.33 -0.24,0.65 -0.46,0.97 -4.3,6.45 -9.25,12.05 -14.29,17.01 -5.06,4.95 -10.3,9.22 -15.57,12.77 -10.53,7.1 -21.11,11.35 -30.16,12.1 -5.06,0.42 -9.96,0.45 -14.36,-0.11 -4.43,-0.57 -8.29,-1.74 -11.82,-3.86 -1,-0.59 -2.06,-1.32 -3.13,-2.06 -0.99,-0.51 -1.97,-0.99 -2.97,-1.64 -0.68,-0.42 -1.36,-0.9 -2.07,-1.39 -0.76,-0.54 -1.56,-1.1 -2.46,-1.65 -1.69,-1.05 -3.61,-2.1 -5.72,-3.1 l -0.9,-0.43 c -4.39,-2.1 -8.93,-4.27 -12.93,-7.96 l 0.02,-0.02 c -0.05,-0.04 -0.1,-0.07 -0.15,-0.11 l 0.01,-0.02 c -0.04,-0.04 -0.1,-0.06 -0.14,-0.1 l 0.01,-0.02 c -0.04,-0.05 -0.1,-0.07 -0.15,-0.11 l 0.03,-0.03 c -0.05,-0.05 -0.11,-0.05 -0.16,-0.1 l 0.04,-0.04 c -0.05,-0.04 -0.12,-0.03 -0.18,-0.08 l 0.96,-1.05 -0.19,-0.05 -0.92,0.96 c -0.04,-0.03 -0.04,-0.12 -0.08,-0.16 l -0.04,0.05 c -0.05,-0.05 -0.03,-0.15 -0.07,-0.19 l -0.06,0.06 c -0.05,-0.04 -0.06,-0.11 -0.1,-0.16 l -0.04,0.04 c -0.04,-0.05 -0.06,-0.12 -0.1,-0.16 l -0.03,0.03 c -0.05,-0.04 -0.08,-0.1 -0.13,-0.14 l -0.01,0.01 c -3.92,-3.61 -6.48,-8.21 -7.41,-13.29 -0.28,-1.5 -0.42,-3.03 -0.42,-4.6 0,-4.33 1.07,-8.86 3.14,-13.14 1.33,-2.78 3.27,-5.74 5.62,-8.54 2.15,-2.55 4.57,-4.89 7.21,-6.97 2.76,-2.16 5.69,-3.93 8.63,-5.31 2.9,-1.62 5.81,-2.89 8.55,-3.75 9.58,-2.99 18.86,-2.36 27.11,0.01 8.29,2.36 15.61,6.49 22.11,10.81 8.29,5.47 16.55,13.57 25.64,15.98 5.53,1.46 12.2,2.05 17.28,5.91" /><path
         id="path64"
         style="fill:#231f20;fill-opacity:1;fill-rule:nonzero;stroke:none"
         d="m 3141.19,2653.96 c 0.48,-1.05 1.03,-2.03 1.58,-3.03 0.07,-0.13 0.12,-0.26 0.2,-0.39 0.01,-0.02 0.03,-0.04 0.04,-0.06 2.07,-3.66 4.51,-6.92 7.35,-9.52 4.21,-3.88 9.14,-5.56 14.36,-5.21 1.07,0.01 2.06,0.13 2.96,0.32 0.04,0.01 0.08,0 0.12,0.01 v 0.01 c 0.06,0.02 0.13,0.02 0.19,0.04 l -0.01,0.02 c 0.06,0.01 0.12,0 0.19,0.01 l -0.01,0.04 c 0.06,0.01 0.13,-0.01 0.19,0 l -0.01,0.05 c 0.06,0.01 0.13,-0.02 0.19,-0.01 v 0.03 c 0.06,0.01 0.14,0 0.19,0.02 l -0.32,1.35 0.21,-0.04 0.25,-1.29 c 0.1,0.02 0.1,0.13 0.18,0.17 l 0.03,-0.12 c 0.06,0.01 0.11,0.07 0.17,0.09 l 0.01,-0.05 c 0.07,0.01 0.12,0.05 0.18,0.07 l 0.01,-0.03 c 0.06,0.01 0.11,0.04 0.17,0.06 l 0.01,-0.02 c 0.06,0.01 0.11,0.04 0.17,0.05 l 0.01,-0.01 c 0.26,0.05 0.5,0.19 0.76,0.25 0.88,0.25 1.76,0.53 2.6,0.89 3.38,1.16 6.67,2.65 9.96,4.41 4.22,2.3 8.14,4.59 11.66,6.81 6.79,4.28 11.19,8.22 13.56,11.99 1.03,1.2 2,2.4 2.7,3.62 2.76,4.76 3.52,10.39 3.42,16.64 -0.1,6.23 -1.1,13.03 -2.01,19.75 -1.16,8.44 -3.35,19.2 0.32,27.14 2.22,4.81 6.01,9.61 6.65,15.2 0.17,1.44 -0.79,2.48 -2.02,2.99 -0.29,0.16 -0.6,0.3 -0.97,0.39 -14.95,3.79 -29.75,2.61 -42.54,-2.46 -12.77,-5.07 -23.58,-14.28 -29.79,-26.12 -3.45,-6.58 -6.28,-13.98 -7.89,-21.94 -1.61,-7.95 -1.99,-16.51 -0.46,-25.02 0.94,-5.24 2.64,-11.4 5.44,-17.1" /><path
         id="path66"
         style="fill:#231f20;fill-opacity:1;fill-rule:nonzero;stroke:none"
         d="m 3288.63,2412.4 -0.03,-0.04 c 0.05,-0.04 0.12,-0.04 0.17,-0.07 l -0.03,-0.04 c 0.05,-0.04 0.14,-0.03 0.18,-0.07 l -0.03,-0.04 c 0.05,-0.04 0.12,-0.05 0.17,-0.08 l -0.02,-0.03 c 0.05,-0.04 0.12,-0.05 0.16,-0.09 l -0.02,-0.03 c 9.47,-7.29 21.61,-7.52 28,-7.02 7.72,0.62 14.66,2.76 19.32,5.74 1.79,0.85 3.43,1.77 4.78,2.76 9.67,7.18 11.37,19.52 13.35,31.13 1.15,7.25 2.25,16.85 7.68,20.87 3.26,2.43 7.56,3.55 9.83,6.75 0.62,0.83 0.31,2.2 -0.38,3.38 -0.13,0.27 -0.29,0.54 -0.48,0.82 -4.4,6.27 -9.66,11.45 -15.74,15.13 -6.05,3.69 -12.88,5.88 -19.83,6.54 -13.95,1.38 -27.99,-3.36 -37.4,-11.31 -10.59,-8.88 -18.7,-20.53 -21.12,-33.37 -0.73,-3.81 -1.24,-8.19 -1.1,-12.72 -0.01,-0.2 -0.07,-0.41 -0.07,-0.63 0,-4.32 0.62,-8.59 1.87,-12.74 1.72,-5.74 4.98,-10.49 9.67,-14.08 l 0.01,0.01 c 0.05,-0.04 0.09,-0.09 0.14,-0.13 l 0.01,0.02 c 0.05,-0.04 0.09,-0.09 0.14,-0.13 l 0.03,0.04 c 0.05,-0.04 0.06,-0.11 0.12,-0.15 l 0.02,0.03 c 0.04,-0.03 0.08,-0.12 0.12,-0.15 l 0.06,0.08 c 0.05,-0.05 0.03,-0.14 0.09,-0.19 l 0.86,1.12 0.1,-0.17 -0.81,-1.06 c 0.06,-0.05 0.12,-0.04 0.18,-0.08" /><path
         id="path68"
         style="fill:#231f20;fill-opacity:1;fill-rule:nonzero;stroke:none"
         d="m 3279.73,2300.66 c 4.34,-2.27 8.55,-4.11 12.52,-5.48 7.09,-2.47 13.5,-3.28 18.33,-2.52 1.74,0.03 3.41,0.15 4.92,0.49 11.05,2.44 18.74,13.37 26.22,23.96 4.67,6.64 9.93,15.63 17.4,18.48 4.52,1.73 10.04,2.31 13.89,5.57 0.99,0.84 0.99,2.24 0.49,3.47 -0.09,0.32 -0.22,0.63 -0.4,0.96 -7.52,13.41 -18.49,23.18 -30.57,28.69 -12.07,5.52 -25.27,6.77 -36.72,3.36 -12.72,-3.77 -25.68,-11.12 -34.5,-23.24 -2.67,-3.68 -5.51,-8.27 -7.59,-13.38 -2.11,-4.72 -3.41,-9.59 -3.72,-14.29 -0.04,-0.56 -0.06,-1.12 -0.06,-1.67 0,-5.83 2.2,-10.97 6.4,-14.92 l 0.01,0.01 c 0.05,-0.05 0.08,-0.1 0.13,-0.14 l 0.02,0.03 c 0.05,-0.05 0.06,-0.11 0.11,-0.16 l 0.03,0.03 c 0.04,-0.05 0.06,-0.12 0.1,-0.16 l 0.03,0.03 c 0.05,-0.05 0.06,-0.12 0.11,-0.16 l 0.06,0.06 c 0.03,-0.04 0.04,-0.16 0.08,-0.19 l 0.95,1.02 0.08,-0.19 -0.92,-0.94 c 0.07,-0.07 0.15,0 0.23,-0.06 l -0.09,-0.08 c 0.05,-0.05 0.12,-0.06 0.18,-0.1 l -0.04,-0.03 c 0.05,-0.05 0.11,-0.07 0.16,-0.11 l -0.03,-0.02 c 0.05,-0.05 0.11,-0.07 0.15,-0.12 l -0.01,-0.01 c 0.04,-0.05 0.1,-0.06 0.15,-0.11 l -0.02,-0.02 c 3.57,-3.39 7.84,-5.88 11.92,-8.06" /><path
         id="path70"
         style="fill:#231f20;fill-opacity:1;fill-rule:nonzero;stroke:none"
         d="m 3224.51,2349.49 c 1.21,-0.01 2.42,0.08 3.62,0.28 3.59,0.3 7.13,1 10.36,2.49 4.46,2.04 8.61,5.25 12.02,9.29 4.97,5.84 8.17,13.47 8.79,20.1 0.47,2.46 0.68,4.84 0.58,7.01 -0.29,7.3 -3.31,13.65 -7.54,18.88 -4.24,5.26 -9.67,9.45 -15.01,13.03 -6.74,4.56 -15.78,8.54 -19.11,14.94 -2.01,3.89 -3.11,8.84 -6.67,11.68 -0.91,0.72 -2.25,0.45 -3.39,-0.23 -0.3,-0.15 -0.6,-0.32 -0.89,-0.55 -12.18,-9.36 -20.56,-20.84 -25.64,-31.7 -5.05,-10.9 -6.91,-21.07 -5.43,-28.74 1.72,-8.67 5.08,-15.9 12.17,-21.27 1.4,-1.07 3.03,-2.24 4.84,-3.41 3.44,-2.62 7.59,-5.1 12.9,-7.59 5.52,-2.56 10.74,-3.92 15.95,-4.15 v 0.02 c 0.07,0 0.13,-0.02 0.19,-0.03 v 0.03 c 0.06,0 0.12,-0.03 0.19,-0.03 v 0.04 c 0.06,-0.01 0.12,-0.05 0.18,-0.05 v 0.02 c 0.06,0 0.13,-0.03 0.19,-0.03 v 0.07 c 0.07,-0.01 0.11,-0.07 0.18,-0.08 l 0.07,1.43 0.17,-0.09 -0.03,-1.35 c 0.07,0 0.11,0.05 0.17,0.05 v -0.06 c 0.06,0 0.12,0.03 0.18,0.04 v -0.04 c 0.06,-0.01 0.13,0.02 0.19,0.02 v -0.03 c 0.06,0 0.12,0.01 0.18,0.01 v -0.02 c 0.07,0 0.13,0.01 0.19,0.01 v -0.02 c 0.13,0 0.26,0.04 0.4,0.03" /><path
         id="path72"
         style="fill:#231f20;fill-opacity:1;fill-rule:nonzero;stroke:none"
         d="m 2874.72,2603.24 c 5.55,-10.21 11.92,-17.49 18.54,-20.69 7.47,-3.57 15.05,-5.07 23.29,-2.37 1.58,0.51 3.3,1.12 5.15,1.87 4.01,1.29 8.35,3.28 13.54,6.32 5.37,3.15 9.41,6.43 12.69,10.32 l -0.02,0.02 c 0.04,0.04 0.1,0.08 0.14,0.12 l -0.02,0.02 c 0.04,0.05 0.1,0.08 0.14,0.13 l -0.03,0.02 c 0.04,0.05 0.11,0.07 0.15,0.12 l -0.02,0.02 c 0.04,0.04 0.1,0.08 0.14,0.12 l -0.05,0.04 c 0.05,0.05 0.12,0.05 0.17,0.1 l -1.29,1.1 c 0.04,0.04 0.08,0.08 0.12,0.13 l 1.29,-1.08 c 0.05,0.06 0.04,0.12 0.08,0.18 l 0.04,-0.04 c 0.04,0.05 0.02,0.15 0.05,0.2 l 0.07,-0.06 c 0.04,0.05 0.04,0.13 0.07,0.18 l 0.04,-0.03 c 0.05,0.04 0.06,0.11 0.1,0.16 l 0.02,-0.02 c 0.04,0.05 0.07,0.1 0.11,0.15 l 0.01,-0.01 c 0.08,0.09 0.12,0.2 0.19,0.29 0.79,0.98 1.47,2.03 2.07,3.14 1.94,3.03 3.53,6.26 4.27,9.69 1.07,4.76 0.97,10.01 -0.26,15.19 -1.8,7.71 -6.19,15.04 -11.29,19.36 -1.51,1.58 -3.08,2.96 -4.66,4.04 -5.9,4.01 -12.64,5.26 -19.25,4.91 -6.62,-0.36 -13.15,-2.3 -19.14,-4.56 -7.64,-2.81 -16.07,-7.9 -23.35,-7.1 -4.42,0.49 -9.4,2.27 -14,0.67 -1.17,-0.41 -1.65,-1.68 -1.65,-2.99 -0.03,-0.34 -0.03,-0.7 0.03,-1.08 2.1,-15.23 7.05,-28.36 12.52,-38.58" /><path
         id="path74"
         style="fill:#231f20;fill-opacity:1;fill-rule:nonzero;stroke:none"
         d="m 2968.26,2563.2 c -7.01,2.73 -14.41,3.44 -20.19,2.23 -2.14,-0.21 -4.17,-0.57 -5.98,-1.18 -12.73,-4.17 -20.02,-17.65 -24.58,-30.5 -3.01,-8.17 -4.69,-18.53 -10.1,-24.72 -3.3,-3.75 -7.99,-7.53 -9.39,-12.82 -0.34,-1.32 0.44,-2.45 1.55,-3.14 0.28,-0.2 0.59,-0.39 0.96,-0.55 7.09,-3.01 14.17,-5.04 20.83,-6.64 6.66,-1.59 12.92,-2.76 18.62,-3.52 11.41,-1.5 20.65,-1.34 27.57,2.09 7.67,3.8 14.91,9.69 19.58,19.28 1.08,2.27 2.27,4.97 3.31,7.94 1.83,4.51 3.03,9.32 3.48,14.46 0.5,5.8 -0.56,11.37 -3.14,16.53 h -0.01 c -0.03,0.05 -0.04,0.11 -0.07,0.17 l -0.02,-0.01 c -0.03,0.06 -0.04,0.12 -0.07,0.17 l -0.02,-0.01 c -0.03,0.06 -0.03,0.12 -0.06,0.18 l -0.03,-0.02 c -0.03,0.06 -0.03,0.13 -0.05,0.19 l -0.05,-0.03 c -0.03,0.06 0,0.13 -0.03,0.19 l -1.28,-0.63 v 0.2 l 1.19,0.6 c -0.03,0.07 -0.08,0.09 -0.12,0.14 l 0.04,0.02 c -0.03,0.06 -0.09,0.1 -0.12,0.16 l 0.04,0.01 c -0.03,0.06 -0.08,0.1 -0.11,0.16 l 0.02,0.01 c -0.03,0.05 -0.09,0.09 -0.12,0.15 l 0.04,0.01 c -0.03,0.06 -0.08,0.1 -0.11,0.16 l 0.02,0.01 c -4.07,8.19 -11.95,15.02 -21.6,18.71" /><path
         id="path76"
         style="fill:#231f20;fill-opacity:1;fill-rule:nonzero;stroke:none"
         d="m 3442.24,2260.37 c -4.81,-5.52 -9.59,-13.06 -11.88,-20.84 -1.28,-3.95 -2.02,-7.91 -2.02,-11.69 0,-1.02 0.05,-2.02 0.15,-3.02 0.56,-5.85 3.21,-10.44 7.51,-13.6 0.45,-0.38 0.9,-0.62 1.35,-0.92 0.43,-0.26 0.76,-0.59 1.22,-0.83 l 0.01,0.02 c 0.05,-0.03 0.1,-0.07 0.15,-0.1 l 0.02,0.02 c 0.05,-0.03 0.09,-0.08 0.15,-0.11 l 0.01,0.03 c 0.06,-0.03 0.1,-0.08 0.15,-0.11 l 0.03,0.05 c 0.06,-0.03 0.08,-0.11 0.14,-0.14 l 0.04,0.07 c 0.05,-0.02 0.09,-0.14 0.13,-0.16 l 0.63,1.24 0.13,-0.16 -0.64,-1.14 c 0.1,-0.05 0.17,0.04 0.26,0.01 l -0.06,-0.11 c 0.06,-0.03 0.13,-0.01 0.19,-0.04 l -0.03,-0.05 c 0.06,-0.03 0.13,-0.03 0.19,-0.06 l -0.02,-0.03 c 0.06,-0.02 0.12,-0.03 0.18,-0.06 l -0.01,-0.02 c 0.05,-0.03 0.11,-0.05 0.17,-0.07 l -0.01,-0.02 c 0.21,-0.1 0.44,-0.14 0.64,-0.24 0.92,-0.41 1.85,-0.76 2.81,-1.03 3.45,-1.24 7.04,-2.1 10.56,-2.67 l 3.24,-0.49 c 3.57,-0.54 6.95,-1.05 10.01,-1.65 1.88,-0.37 3.63,-0.75 5.27,-1.11 4.51,-1 8.2,-1.75 11.24,-1.39 1.15,-0.1 2.3,-0.21 3.33,-0.09 4.45,0.44 8.76,2.96 13.68,6.55 4.88,3.59 10.25,8.2 15.8,12.67 6.99,5.66 15.78,13.38 25.53,14.95 5.89,0.95 12.99,0.8 18.91,4 1.5,0.83 1.84,2.24 1.49,3.51 -0.06,0.33 -0.15,0.67 -0.32,1.02 -3.39,6.98 -7.74,13.15 -12.51,18.64 -4.79,5.47 -10.07,10.22 -15.9,14.1 -11.56,7.72 -25.73,11.96 -40.78,10.29 -8.33,-0.94 -17.35,-3.07 -26.33,-7.09 -8.93,-4.01 -17.87,-10.03 -24.81,-18.13" /><path
         id="path78"
         style="fill:#231f20;fill-opacity:1;fill-rule:nonzero;stroke:none"
         d="m 3355.37,2193.16 c 7.56,2.3 14.15,5.88 18.39,9.77 1.7,1.25 3.25,2.53 4.5,3.84 8.85,9.3 9.43,22.65 10.58,35.45 0.64,7.98 1.06,18.41 6.57,23.94 3.32,3.34 7.97,5.68 10.26,9.74 0.61,1.05 0.14,2.39 -0.74,3.41 -0.19,0.26 -0.39,0.51 -0.64,0.75 -5.6,5.26 -11.88,9.26 -18.69,11.71 -6.8,2.45 -14.09,3.34 -21.32,2.72 -14.47,-1.18 -28.4,-8.49 -37.4,-18.74 -10.12,-11.4 -17.48,-25.75 -18.61,-40.43 -0.43,-5.17 -0.38,-11.23 0.81,-17.11 0.63,-3.86 1.57,-7.62 3.13,-11.12 2.56,-5.75 6.63,-9.98 12.09,-12.55 l 0.01,0.02 c 0.05,-0.02 0.1,-0.07 0.16,-0.1 l 0.01,0.02 c 0.06,-0.02 0.1,-0.07 0.16,-0.1 l 0.01,0.03 c 0.05,-0.03 0.1,-0.08 0.15,-0.11 l 0.02,0.03 c 0.05,-0.03 0.11,-0.08 0.15,-0.1 l 0.03,0.06 c 0.06,-0.04 0.08,-0.11 0.14,-0.15 l 0.6,1.27 0.13,-0.15 -0.56,-1.19 c 0.07,-0.03 0.12,-0.02 0.18,-0.04 l -0.01,-0.04 c 0.06,-0.03 0.13,-0.01 0.19,-0.03 l -0.02,-0.05 c 0.05,-0.03 0.12,-0.03 0.18,-0.05 l -0.02,-0.03 c 0.06,-0.03 0.14,-0.01 0.19,-0.04 l -0.02,-0.04 c 0.06,-0.02 0.13,-0.02 0.19,-0.05 l -0.02,-0.03 c 7.79,-3.65 18.16,-3.83 29.22,-0.51" /><path
         id="path80"
         style="fill:#231f20;fill-opacity:1;fill-rule:nonzero;stroke:none"
         d="m 3358.34,2167.11 c -0.06,-0.04 -0.04,-0.12 -0.09,-0.16 l -0.05,0.05 c -0.04,-0.04 -0.06,-0.11 -0.11,-0.16 l -0.03,0.04 c -0.05,-0.04 -0.06,-0.11 -0.11,-0.15 l -0.03,0.04 c -0.05,-0.04 -0.08,-0.1 -0.13,-0.14 l -0.01,0.02 c -0.05,-0.04 -0.09,-0.09 -0.14,-0.13 l -0.01,0.01 c -3.92,-3.23 -6.81,-7.48 -8.37,-12.31 -0.97,-2.96 -1.46,-6.16 -1.46,-9.49 0,-2.29 0.24,-4.64 0.7,-7.01 1.08,-5.57 3.52,-11.3 6.88,-16.13 1.83,-2.66 3.94,-5 6.17,-7.01 2.05,-2.14 4.21,-4.04 6.4,-5.54 7.76,-5.33 16.67,-7.46 25.16,-7.53 8.54,-0.09 16.71,1.81 24.05,4.2 9.37,2.99 19.28,8.63 28.3,8.52 5.49,-0.07 11.72,-1.29 17,0.81 1.33,0.53 1.79,1.85 1.66,3.17 0,0.34 -0.03,0.69 -0.13,1.06 -3.86,14.95 -11.52,27.38 -19.46,37.05 -8.04,9.65 -16.43,16.53 -24.13,19.66 -4.33,1.73 -8.56,3.07 -12.7,3.73 -4.14,0.67 -8.19,0.62 -12.65,-0.2 -1.79,-0.33 -3.82,-0.74 -6.02,-1.22 -4.43,-0.65 -9.21,-1.74 -14.78,-3.22 -6.36,-1.73 -11.14,-4.03 -15.04,-7.24 l 0.02,-0.02 c -0.05,-0.04 -0.12,-0.06 -0.17,-0.1 l 0.03,-0.03 c -0.05,-0.04 -0.12,-0.05 -0.17,-0.09 l 0.03,-0.04 c -0.05,-0.03 -0.12,-0.03 -0.17,-0.07 l 0.02,-0.03 c -0.05,-0.04 -0.11,-0.05 -0.16,-0.09 l 0.04,-0.06 c -0.06,-0.03 -0.13,-0.01 -0.19,-0.06 l 0.89,-1.09 -0.19,-0.05 -0.85,1.01" /><path
         id="path82"
         style="fill:#231f20;fill-opacity:1;fill-rule:nonzero;stroke:none"
         d="M 1.21875,377.148 H 203.297 V 294.121 H 91.7578 V 231.09 H 199.285 V 148.07 H 91.7578 V 7 H 1.21875 v 370.148" /><path
         id="path84"
         style="fill:#231f20;fill-opacity:1;fill-rule:nonzero;stroke:none"
         d="m 440.035,83.0391 c 67.02,0 99.539,61.0119 99.539,108.5509 0,48.019 -32.519,109.539 -100.539,109.539 -65.531,0 -101.047,-56.027 -101.047,-108.059 0,-57.019 38.508,-110.0309 102.047,-110.0309 z m -1.508,301.1089 c 114.043,0 195.582,-89.027 195.582,-192.078 C 634.109,89.0313 553.078,0 438.039,0 321.473,0 243.453,92.5313 243.453,187.57 c 0,24.52 3.504,52.039 14.5,79.039 19.512,48.02 77.039,117.539 180.574,117.539" /><path
         id="path86"
         style="fill:#231f20;fill-opacity:1;fill-rule:nonzero;stroke:none"
         d="m 690.375,377.148 h 81.52 l 143.062,-232.589 0.996,1 -3.992,231.589 H 1002.5 V 7 h -82.047 l -141.043,225.09 -1,-0.488 L 780.895,7 h -90.52 v 370.148" /><path
         id="path88"
         style="fill:#231f20;fill-opacity:1;fill-rule:nonzero;stroke:none"
         d="m 1164.77,90.0313 h 40.52 c 70.53,0 90.54,49.0197 90.54,101.5587 0,20.992 -4.5,47.512 -18,68.519 -11.02,16.5 -30.02,34.012 -72.05,34.012 h -41.01 z m -94.53,287.1167 h 122.55 c 41.52,0 115.55,0 163.57,-69.019 25.49,-35.027 34.01,-74.527 34.01,-115.059 C 1390.37,92.0391 1340.35,7 1199.79,7 h -129.55 v 370.148" /><path
         id="path90"
         style="fill:#231f20;fill-opacity:1;fill-rule:nonzero;stroke:none"
         d="m 1544.71,135.559 h 77.55 l -38.02,126.55 h -1.51 z M 1518.7,60.5195 1499.19,7 h -101.53 l 148.56,370.148 h 74.53 L 1767.8,7 h -102.53 l -18,53.5195 H 1518.7" /><path
         id="path92"
         style="fill:#231f20;fill-opacity:1;fill-rule:nonzero;stroke:none"
         d="m 1843.09,294.121 h -73.03 v 83.027 h 240.1 v -83.027 h -72.54 V 7 h -94.53 v 287.121" /><path
         id="path94"
         style="fill:#231f20;fill-opacity:1;fill-rule:nonzero;stroke:none"
         d="m 2053.31,377.148 h 94.54 V 7 h -94.54 v 370.148" /><path
         id="path96"
         style="fill:#231f20;fill-opacity:1;fill-rule:nonzero;stroke:none"
         d="m 2400.55,83.0391 c 67.02,0 99.54,61.0119 99.54,108.5509 0,48.019 -32.52,109.539 -100.54,109.539 -65.53,0 -101.05,-56.027 -101.05,-108.059 0,-57.019 38.51,-110.0309 102.05,-110.0309 z m -1.51,301.1089 c 114.04,0 195.58,-89.027 195.58,-192.078 C 2594.62,89.0313 2513.59,0 2398.53,0 c -116.54,0 -194.56,92.5313 -194.56,187.57 0,24.52 3.5,52.039 14.5,79.039 19.51,48.02 77.04,117.539 180.57,117.539" /><path
         id="path98"
         style="fill:#231f20;fill-opacity:1;fill-rule:nonzero;stroke:none"
         d="m 2650.87,377.148 h 81.52 l 143.06,-232.589 1,1 -3.99,231.589 H 2963 V 7 h -82.05 L 2739.9,232.09 2738.91,231.602 2741.39,7 h -90.52 v 370.148" /></g></g></svg>